<svg width="20" height="20" viewBox="0 0 20 20" fill="none" xmlns="http://www.w3.org/2000/svg">
<path d="M4.98388 4.54098H18.5578L16.6253 12.7538C16.3744 13.8201 15.4229 14.5738 14.3274 14.5738H9.45677C8.38561 14.5738 7.44875 13.8526 7.17466 12.8172L4.98388 4.54098ZM4.98388 4.54098L4.09863 1H1.44287" stroke="#FFFEFE" stroke-width="1.5" stroke-linecap="round" stroke-linejoin="round"/>
<path d="M7.64054 19.0001C8.29242 19.0001 8.82088 18.4716 8.82088 17.8197C8.82088 17.1679 8.29242 16.6394 7.64054 16.6394C6.98866 16.6394 6.46021 17.1679 6.46021 17.8197C6.46021 18.4716 6.98866 19.0001 7.64054 19.0001Z" fill="#FFFEFE"/>
<path d="M15.9037 19.0001C16.5556 19.0001 17.0841 18.4716 17.0841 17.8197C17.0841 17.1679 16.5556 16.6394 15.9037 16.6394C15.2518 16.6394 14.7234 17.1679 14.7234 17.8197C14.7234 18.4716 15.2518 19.0001 15.9037 19.0001Z" fill="#FFFEFE"/>
</svg>
