<svg width="168" height="50" viewBox="0 0 168 50" fill="none" xmlns="http://www.w3.org/2000/svg">
<path d="M109.266 43.9319L111.142 41.4296V43.9319H111.716V40.5721H111.142L109.266 43.0745V40.5721H108.691V43.9319H109.266ZM104.893 43.9319L106.747 41.4296V43.9319H107.323V40.5721H106.747L104.866 43.0745V40.5721H104.29V43.9319H104.893ZM101.355 43.9319H101.956V41.1456H103.435V40.5856H101.382L101.355 43.9319ZM97.364 42.2511C97.3462 42.0113 97.4009 41.7717 97.5208 41.565C97.6407 41.3583 97.8199 41.1946 98.034 41.0961C98.2475 40.9988 98.4856 40.973 98.7142 41.0226C98.9428 41.0721 99.1504 41.1945 99.3072 41.3721C99.4124 41.4889 99.4931 41.6282 99.5431 41.7801C99.5948 41.9311 99.615 42.092 99.6027 42.252C99.6175 42.4866 99.5605 42.7202 99.4396 42.92C99.3187 43.1198 99.14 43.2759 98.9284 43.3666C98.7884 43.426 98.6378 43.4545 98.4864 43.4502C98.335 43.4536 98.1846 43.4246 98.0448 43.365C97.905 43.3055 97.7788 43.2166 97.6744 43.1041C97.5689 42.9912 97.4869 42.8574 97.4335 42.7109C97.3802 42.5644 97.3565 42.4073 97.364 42.2511ZM96.7555 42.2511C96.7484 42.606 96.8438 42.9551 97.0298 43.2545C97.2158 43.5539 97.484 43.7902 97.8007 43.9337C98.1155 44.0749 98.4645 44.1162 98.803 44.0506C99.1415 43.9859 99.4528 43.8169 99.6992 43.5679C99.8824 43.3804 100.023 43.1538 100.111 42.9043C100.199 42.6547 100.233 42.3883 100.209 42.124C100.186 41.8597 100.106 41.604 99.9752 41.3749C99.8444 41.1458 99.666 40.9491 99.4528 40.7986C99.1678 40.5998 98.8311 40.4933 98.4864 40.493C98.2582 40.48 98.0299 40.5166 97.8164 40.6002C97.6029 40.6838 97.409 40.8127 97.2474 40.9784C97.0841 41.1444 96.9561 41.3432 96.8714 41.5624C96.7867 41.7816 96.7473 42.0155 96.7555 42.2511ZM95.0447 43.9319H95.619V40.5721H93.3672L93.3058 41.6138C93.2304 43.1733 92.7657 43.4142 92.5193 43.3935L92.5596 43.9814C93.2445 43.9814 93.7232 43.6488 93.8671 41.7343V41.168H95.0105L95.0447 43.9319ZM88.8846 42.2511C88.8663 42.0113 88.9207 41.7714 89.0405 41.5645C89.1602 41.3576 89.3395 41.1937 89.5537 41.0952C89.6959 41.0307 89.8496 40.9974 90.0051 40.9974C90.1606 40.9973 90.3144 41.0307 90.4565 41.0951C90.5987 41.1596 90.7262 41.2539 90.8307 41.3719C90.9353 41.4898 91.0146 41.6289 91.0637 41.7801C91.1154 41.9311 91.1347 42.092 91.1224 42.252C91.1331 42.4075 91.112 42.5636 91.0604 42.7103C91.0088 42.8569 90.928 42.9909 90.823 43.1037C90.718 43.2165 90.5912 43.3055 90.4507 43.3652C90.3102 43.4249 90.1591 43.4538 90.007 43.4502C89.8556 43.4536 89.7052 43.4246 89.5654 43.365C89.4256 43.3055 89.2994 43.2166 89.195 43.1041C89.0895 42.9912 89.0075 42.8574 88.9541 42.7109C88.9008 42.5644 88.8771 42.4073 88.8846 42.2511ZM88.2761 42.2511C88.2688 42.6071 88.3643 42.9573 88.5505 43.2578C88.7373 43.5571 89.0048 43.7926 89.3204 43.9337C89.6361 44.0753 89.9861 44.1161 90.3247 44.0508C90.6633 43.9856 90.9749 43.8173 91.2189 43.5679C91.4649 43.317 91.6332 42.9972 91.7027 42.6487C91.7723 42.3001 91.74 41.9383 91.61 41.6085C91.4805 41.28 91.2585 40.9984 90.9725 40.7995C90.6879 40.6006 90.3515 40.4941 90.007 40.4939C89.7783 40.4799 89.5493 40.5154 89.3348 40.5983C89.1204 40.6812 88.9255 40.8094 88.7627 40.9748C88.5989 41.141 88.4704 41.3402 88.3854 41.5599C88.3004 41.7796 88.2608 42.015 88.2691 42.2511H88.2761ZM84.6213 41.1456H85.812V43.9104H86.3864V41.1456H87.5842V40.5505H84.6283L84.6213 41.1456ZM82.3554 41.0323C82.5371 41.0153 82.7193 41.0584 82.8755 41.155C83.0317 41.2517 83.1536 41.3971 83.2235 41.5698C83.2709 41.684 83.2945 41.808 83.2937 41.9329H81.3216C81.3479 41.6732 81.4706 41.4341 81.6636 41.266C81.8556 41.0988 82.1046 41.0143 82.3554 41.0323ZM83.4778 43.096C83.2017 43.3365 82.8481 43.4627 82.4861 43.4502C82.3466 43.463 82.2061 43.4466 82.073 43.4021C81.9399 43.3576 81.817 43.2859 81.7118 43.1913C81.6054 43.0965 81.5186 42.9809 81.4564 42.8512C81.3942 42.7216 81.3579 42.5805 81.3496 42.4363H83.8478C83.8608 42.3042 83.8608 42.1711 83.8478 42.039C83.8567 41.7302 83.7727 41.4261 83.6074 41.1677C83.4422 40.9094 83.2034 40.7093 82.9236 40.5946C82.7387 40.5202 82.5407 40.4859 82.3423 40.4939C82.117 40.4981 81.8949 40.5481 81.6886 40.6409C81.4824 40.7338 81.2962 40.8678 81.1409 41.035C80.8242 41.3745 80.6511 41.8285 80.6594 42.2981C80.6676 42.7678 80.8564 43.2151 81.1848 43.5428C81.3458 43.704 81.5365 43.8309 81.7457 43.9161C81.9549 44.0012 82.1786 44.043 82.4036 44.0389C82.8482 44.0497 83.2805 43.8933 83.6225 43.5985L83.4778 43.096ZM76.0936 43.9319H76.675V41.479L77.8386 43.0457L78.961 41.479V43.9328H79.5362V40.5712H79.0294L77.8456 42.2376L76.6338 40.5721H76.1077L76.0936 43.9319ZM74.8002 43.0178C74.6848 43.1546 74.5417 43.2641 74.3809 43.3386C74.2201 43.4131 74.0454 43.4509 73.869 43.4493C73.7168 43.4533 73.5654 43.4262 73.4236 43.3695C73.2818 43.3129 73.1524 43.2279 73.043 43.1194C72.8209 42.8987 72.6924 42.5973 72.6852 42.2803C72.678 41.9634 72.7926 41.6562 73.0044 41.4251C73.1089 41.3115 73.2342 41.2202 73.3733 41.1565C73.5124 41.0927 73.6623 41.0579 73.8146 41.0539C74.1566 41.0413 74.4924 41.1689 74.745 41.408L75.0124 40.9334C74.838 40.7769 74.6351 40.6574 74.4153 40.5818C74.1956 40.5062 73.9634 40.476 73.7322 40.493C73.5071 40.4998 73.2856 40.5524 73.0804 40.6476C72.8753 40.7428 72.6906 40.8787 72.537 41.0476C72.2243 41.3905 72.056 41.846 72.0686 42.3152C72.0813 42.7845 72.2738 43.2297 72.6045 43.5544C72.9342 43.878 73.3744 44.0515 73.8278 44.038C74.0631 44.047 74.2973 44.0013 74.513 43.9043C74.7286 43.8073 74.92 43.6616 75.0729 43.478L74.8002 43.0178ZM68.2982 42.252C68.3035 42.024 68.3745 41.8028 68.5023 41.6161C68.6301 41.4294 68.809 41.2857 69.0163 41.2031C69.2223 41.1203 69.4476 41.1025 69.6635 41.1518C69.8794 41.2011 70.076 41.3154 70.2282 41.4799C70.3432 41.6034 70.4304 41.7511 70.4837 41.9128C70.537 42.0746 70.5551 42.2463 70.5367 42.4159C70.5183 42.5855 70.4639 42.749 70.3773 42.8947C70.2906 43.0405 70.1739 43.1651 70.0353 43.2596C69.8511 43.3855 69.6345 43.4511 69.4136 43.4502C69.2624 43.4533 69.1123 43.424 68.9728 43.3643C68.8333 43.3045 68.7074 43.2156 68.6033 43.1032C68.4981 42.9905 68.4167 42.8567 68.3642 42.7102C68.3117 42.5638 68.2892 42.4078 68.2982 42.252ZM67.6826 42.252C67.6755 42.6077 67.771 42.9576 67.9571 43.2578C68.1439 43.5571 68.4113 43.7926 68.727 43.9337C69.0426 44.0755 69.3926 44.1165 69.7313 44.0512C70.07 43.9859 70.3816 43.8175 70.6254 43.5679C70.8713 43.3169 71.0395 42.9971 71.1091 42.6486C71.1787 42.3001 71.1465 41.9383 71.0165 41.6085C70.887 41.2802 70.6655 40.9987 70.3799 40.7995C70.095 40.6006 69.7583 40.4941 69.4136 40.4939C69.1855 40.4806 68.9572 40.5168 68.7437 40.6002C68.5302 40.6835 68.3363 40.8121 68.1745 40.9775C68.0109 41.1434 67.8827 41.3424 67.798 41.5618C67.7133 41.7812 67.674 42.0162 67.6826 42.252ZM64.1786 43.9328H64.753V40.5712H64.1786V43.9328ZM67.053 40.5712H66.2586L64.8906 42.2161L66.3682 43.9328H67.1696L65.6088 42.1738L67.053 40.5721V40.5712ZM58.8402 43.9328L60.6878 41.4296V43.9319H61.263V40.5721H60.6878L58.8402 43.0745V40.5721H58.265V43.9319L58.8402 43.9328ZM136.449 35.3894L138.325 32.8861V35.3894H138.913V32.0287H138.339L136.463 34.531V32.0287H135.888V35.3894H136.449ZM132.076 35.3894L133.958 32.8861V35.3894H134.533V32.0287H133.958L132.069 34.531V32.0287H131.495V35.3894H132.076ZM128.538 35.3894H129.113V32.5536H130.591V31.9936H128.538V35.3894ZM125.732 32.5104C125.879 32.5054 126.025 32.533 126.16 32.5913C126.295 32.6497 126.417 32.7374 126.516 32.8484C126.616 32.9597 126.691 33.0914 126.738 33.2349C126.784 33.3783 126.801 33.5303 126.786 33.6807C126.799 33.8393 126.779 33.999 126.728 34.1493C126.677 34.2996 126.596 34.4373 126.49 34.5535C126.384 34.6686 126.256 34.7595 126.113 34.8204C125.971 34.8813 125.818 34.9107 125.663 34.9067C125.354 34.917 125.049 34.8253 124.795 34.6452V32.9787C124.908 32.8356 125.051 32.7195 125.213 32.6388C125.375 32.5581 125.552 32.5137 125.732 32.5104ZM124.219 36.8923H124.795V35.233C125.073 35.3966 125.391 35.4775 125.712 35.4667C125.94 35.4723 126.167 35.4288 126.378 35.339C126.59 35.2492 126.78 35.1151 126.938 34.9454C127.097 34.7752 127.22 34.5732 127.3 34.3521C127.38 34.131 127.414 33.8954 127.401 33.66C127.44 33.3328 127.376 33.0015 127.218 32.7142C127.061 32.4268 126.818 32.1984 126.525 32.0619C126.332 31.9732 126.122 31.9281 125.91 31.9298C125.703 31.928 125.499 31.9691 125.308 32.0507C125.117 32.1322 124.945 32.2526 124.801 32.4044V32.0071H124.226L124.219 36.8923ZM123.289 32.0358H122.604L121.852 34.1625C121.796 34.3468 121.742 34.5175 121.701 34.6802L121.509 34.1697L120.551 32.043H119.866L121.427 35.4029L121.352 35.588C121.14 36.1265 120.934 36.3458 120.667 36.3458C120.54 36.3366 120.417 36.3005 120.305 36.2397L120.12 36.6936C120.3 36.8266 120.515 36.8986 120.735 36.8995C121.194 36.8995 121.496 36.6082 121.974 35.4029L123.289 32.0358ZM117.615 32.5176C117.761 32.5124 117.907 32.5399 118.043 32.5983C118.178 32.6566 118.3 32.7444 118.399 32.8556C118.498 32.967 118.574 33.0987 118.62 33.2421C118.667 33.3856 118.683 33.5375 118.669 33.6879C118.687 33.927 118.631 34.1658 118.509 34.3705C118.387 34.5752 118.206 34.7355 117.99 34.8285C117.848 34.8897 117.694 34.9184 117.54 34.9139C117.23 34.922 116.926 34.8302 116.67 34.6515V32.9787C116.786 32.8357 116.93 32.72 117.093 32.6393C117.256 32.5586 117.434 32.515 117.615 32.5113V32.5176ZM116.096 36.8923H116.67V35.233C116.95 35.3966 117.267 35.4775 117.587 35.4667C117.816 35.4721 118.043 35.4286 118.255 35.3388C118.466 35.249 118.656 35.115 118.814 34.9454C118.973 34.7747 119.096 34.5727 119.175 34.3517C119.255 34.1307 119.29 33.8954 119.278 33.66C119.303 33.4419 119.283 33.2207 119.219 33.011C119.155 32.8013 119.049 32.6077 118.907 32.443C118.766 32.28 118.592 32.1499 118.397 32.0614C118.203 31.9728 117.992 31.928 117.779 31.9298C117.573 31.927 117.368 31.9677 117.177 32.0494C116.986 32.131 116.814 32.2518 116.67 32.4044V32.0071H116.096V36.8923ZM112.304 35.3957L114.179 32.8933V35.3966H114.761V32.0287H114.179L112.304 34.531V32.0287H111.729V35.3894L112.304 35.3957ZM110.668 32.0358H109.984L109.094 33.305L108.211 32.0358H107.527L108.684 33.6879L107.431 35.3894H108.115L109.081 34.0564L110.032 35.4173H110.716L109.484 33.652L110.668 32.0358ZM102.298 30.3128C102.292 30.4582 102.318 30.6032 102.372 30.7378C102.426 30.8724 102.508 30.9934 102.612 31.0925C102.716 31.1915 102.84 31.2663 102.974 31.3117C103.109 31.3571 103.252 31.372 103.393 31.3554C103.531 31.3664 103.67 31.3475 103.8 31.2998C103.93 31.2521 104.049 31.1767 104.149 31.0786C104.251 30.9803 104.33 30.8614 104.384 30.7295C104.438 30.5976 104.464 30.4556 104.461 30.3128H103.92C103.92 30.7101 103.708 30.9015 103.393 30.9015C103.079 30.9015 102.866 30.7101 102.839 30.3128H102.298ZM102.408 35.3894L104.29 32.8861V35.3894H104.865V32.0287H104.29L102.408 34.531V32.0287H101.833V35.3894H102.408ZM97.8498 33.7086C97.8385 33.5491 97.8587 33.3889 97.9093 33.2377C97.96 33.0865 98.04 32.9473 98.1445 32.8286C98.2495 32.7118 98.3769 32.6184 98.5187 32.5542C98.6605 32.49 98.8137 32.4565 98.9687 32.4556C99.1239 32.4554 99.2774 32.4884 99.4194 32.5527C99.5613 32.6169 99.6886 32.7109 99.793 32.8286C99.8986 32.9468 99.9792 33.086 100.03 33.2376C100.081 33.3891 100.1 33.5498 100.088 33.7095C100.102 33.944 100.045 34.1773 99.9239 34.377C99.803 34.5767 99.6246 34.7329 99.4133 34.824C99.2736 34.883 99.1233 34.9112 98.9722 34.9067C98.8207 34.9102 98.6701 34.8812 98.5302 34.8216C98.3902 34.762 98.2639 34.6732 98.1594 34.5607C98.0538 34.4478 97.9719 34.3139 97.9187 34.1674C97.8655 34.0209 97.842 33.8647 97.8498 33.7086ZM97.2404 33.7086C97.2378 34.0636 97.3369 34.4115 97.5254 34.7081C97.7139 35.0047 97.9831 35.2375 98.2988 35.375C98.6145 35.5136 98.9634 35.5517 99.3005 35.4846C99.6376 35.4174 99.9473 35.2481 100.189 34.9984C100.434 34.7482 100.601 34.4296 100.669 34.0825C100.737 33.7348 100.705 33.3741 100.575 33.0452C100.446 32.7173 100.225 32.4358 99.9403 32.2363C99.657 32.038 99.3223 31.9312 98.9792 31.9298C98.751 31.9167 98.5227 31.953 98.3091 32.0364C98.0955 32.1197 97.9014 32.2481 97.7393 32.4134C97.5757 32.5793 97.4475 32.7783 97.3629 32.9977C97.2782 33.2171 97.2389 33.4521 97.2474 33.6879L97.2404 33.7086ZM93.7434 35.3894H94.3248V32.0287H93.7434V35.3894ZM96.5906 32.0287H95.7962L94.4274 33.6735L95.8926 35.3894H96.6932L95.1324 33.6385L96.5906 32.0287ZM92.4842 34.4744C92.3669 34.6106 92.2226 34.7196 92.061 34.7942C91.8994 34.8687 91.7241 34.9071 91.5468 34.9067C91.3946 34.9104 91.2432 34.8831 91.1015 34.8263C90.9597 34.7695 90.8303 34.6844 90.7208 34.576C90.499 34.3551 90.3706 34.0538 90.3634 33.7369C90.3562 33.42 90.4707 33.1129 90.6822 32.8816C90.8944 32.6515 91.1847 32.5185 91.4916 32.5104C91.8353 32.4969 92.1703 32.6246 92.4228 32.8655L92.6894 32.3981C92.5162 32.2393 92.3136 32.1178 92.0937 32.0409C91.8737 31.964 91.6409 31.9333 91.4092 31.9505C91.184 31.9569 90.9623 32.0093 90.7571 32.1045C90.5519 32.1997 90.3673 32.3359 90.214 32.505C89.9827 32.762 89.8294 33.0824 89.7727 33.4271C89.716 33.7719 89.7585 34.1261 89.8948 34.4465C90.0791 34.8744 90.4216 35.2097 90.8471 35.3786C91.0575 35.4622 91.2811 35.5018 91.5056 35.4955C91.742 35.5044 91.9772 35.4588 92.194 35.3618C92.4108 35.2649 92.6035 35.1192 92.7578 34.9355L92.4842 34.4744ZM87.3106 32.5104C87.4922 32.4937 87.6742 32.5368 87.8302 32.6335C87.9862 32.7301 88.108 32.8754 88.1779 33.0479C88.2256 33.1627 88.2495 33.2863 88.248 33.4111H86.2154C86.2435 33.1522 86.3654 32.914 86.5574 32.7459C86.7503 32.5787 86.9985 32.4943 87.2484 32.5104H87.3106ZM88.3848 34.5526C88.1042 34.7926 87.7491 34.9184 87.3852 34.9067C87.246 34.9206 87.1056 34.9049 86.9725 34.8609C86.8395 34.8168 86.7167 34.7452 86.6118 34.6506C86.5057 34.5555 86.4195 34.4395 86.3583 34.3094C86.2971 34.1794 86.2622 34.038 86.2558 33.8937H88.747C88.8333 33.5468 88.8023 33.18 88.6589 32.8535C88.5156 32.527 88.2684 32.2599 87.9578 32.0961C87.7526 31.9897 87.5265 31.9328 87.2966 31.9298C87.0716 31.918 86.8468 31.9558 86.6371 32.0404C86.4275 32.125 86.238 32.2547 86.0813 32.4205C85.9232 32.5875 85.8011 32.7865 85.7227 33.0048C85.6443 33.2231 85.6114 33.4558 85.6262 33.6879C85.6103 33.9276 85.6443 34.1679 85.726 34.3931C85.8076 34.6182 85.935 34.823 86.0997 34.9939C86.2642 35.1629 86.4625 35.2933 86.681 35.3762C86.8994 35.459 87.1328 35.4924 87.365 35.4739C87.8087 35.4838 88.2419 35.3283 88.583 35.0344L88.3848 34.5526ZM84.4766 32.0287H83.9013V33.5603C83.6777 33.7041 83.4191 33.7778 83.156 33.7724C82.7176 33.7724 82.472 33.5171 82.472 32.9787V32.0287H81.8556V33.0425C81.8556 33.9144 82.2326 34.3324 83.0122 34.3324C83.3296 34.3369 83.6427 34.2515 83.9154 34.0843V35.3894H84.4906L84.4766 32.0287ZM78.249 35.3894L80.1308 32.8861V35.3894H80.7402V32.0287H80.165L78.2832 34.531V32.0287H77.708V35.3894H78.249ZM73.7857 32.639H74.9774V35.4029H75.5526V32.6381H76.7434V32.043H73.7866V32.6381L73.7857 32.639ZM72.7466 34.4888C72.6306 34.6249 72.4874 34.734 72.3267 34.8085C72.1661 34.8831 71.9917 34.9215 71.8153 34.9211C71.5084 34.9301 71.212 34.8115 70.9884 34.593C70.7652 34.3733 70.6354 34.0721 70.6274 33.7549C70.6193 33.4377 70.7336 33.1301 70.9455 32.8987C71.1559 32.6677 71.447 32.5338 71.754 32.5248C72.0977 32.5113 72.4318 32.639 72.6843 32.8799L72.9518 32.4116C72.7799 32.2529 72.5786 32.1315 72.3597 32.0547C72.1409 31.9779 71.9092 31.9474 71.6785 31.9648C71.4533 31.9716 71.2316 32.0241 71.0263 32.1193C70.821 32.2145 70.6362 32.3505 70.4825 32.5194C70.1703 32.8625 70.0025 33.3178 70.0153 33.7868C70.0281 34.2557 70.2205 34.7007 70.5509 35.0254C70.8806 35.349 71.3208 35.5224 71.7741 35.5098C72.0094 35.5183 72.2435 35.4724 72.459 35.3754C72.6746 35.2785 72.8661 35.133 73.0193 34.9499L72.7466 34.4888ZM67.5791 34.9211C67.203 34.9211 66.9978 34.709 66.9978 34.3899C66.9978 34.0708 67.3398 33.8362 67.6817 33.8362C67.9448 33.8236 68.2044 33.9009 68.4209 34.0564V34.4816C68.3217 34.6143 68.1944 34.7222 68.0486 34.7971C67.9028 34.872 67.7422 34.9119 67.5791 34.9139V34.9211ZM66.7856 32.745C67.0574 32.5787 67.3669 32.4934 67.6817 32.4969C68.3254 32.4969 68.4209 32.9284 68.4209 33.5603C68.1751 33.4104 67.8922 33.3364 67.6063 33.3472C66.9224 33.3472 66.3813 33.7302 66.3813 34.4178C66.3692 34.5577 66.3866 34.6987 66.4323 34.8311C66.478 34.9635 66.5509 35.0844 66.6461 35.1854C66.7409 35.2851 66.8558 35.3626 66.9826 35.4124C67.1095 35.4622 67.2454 35.4832 67.381 35.4739C67.5799 35.4845 67.7785 35.4456 67.9596 35.3605C68.1407 35.2753 68.299 35.1465 68.4209 34.9849V35.4173H68.9681V33.3472C68.9681 32.4754 68.6402 31.972 67.7159 31.972C67.3342 31.9701 66.9595 32.0782 66.6348 32.2839L66.7856 32.745ZM64.6916 35.3966H65.2659V32.0287H63.0141L62.9457 33.0713C62.8712 34.6308 62.4056 34.878 62.1592 34.851L62.2065 35.4388C62.8905 35.4388 63.364 35.1063 63.5069 33.1917L63.5481 32.6246H64.6846L64.6916 35.3966ZM60.5852 35.3966H61.1595V32.0287H58.2308V35.3894H58.8393V32.5536H60.6124L60.5852 35.3966ZM159.007 11.8093H162.627V24.3858H164.386V11.8093H168V10.2364H159.007V11.8093ZM149.925 23.3162L147.29 29.5685H149.179L157.303 10.2355H155.427L150.869 21.1321L146.175 10.2355H144.313L149.925 23.3162ZM133.499 11.8093H137.113V24.3858H138.913V11.8093H142.534V10.2364H133.527L133.499 11.8093ZM119.066 10.2364V24.4146H119.285L129.243 14.042V24.3867H131.002V10.2067H130.865L120.825 20.7051V10.2364H119.066ZM107.561 11.8093H111.175V24.3858H112.907V11.8093H116.526V10.2364H107.561V11.8093ZM104.194 11.4201C103.547 10.9244 102.823 10.5454 102.052 10.2993C101.209 10.01 100.326 9.86426 99.4379 9.86783C98.0735 9.84867 96.7275 10.1904 95.5296 10.8601C94.387 11.5005 93.4395 12.4524 92.792 13.6106C92.1318 14.7698 91.7869 16.0893 91.7932 17.4315C91.779 18.4026 91.9614 19.366 92.329 20.2611C92.696 21.1534 93.2408 21.9574 93.9284 22.6214C94.6405 23.3273 95.4834 23.8796 96.4074 24.2456C97.3292 24.6108 98.3133 24.7817 99.3011 24.7481C100.603 24.771 101.891 24.482 103.065 23.9041C104.134 23.3706 105.044 22.553 105.7 21.5365L104.331 20.5865C103.422 21.7791 102.134 22.6068 100.691 22.9252C99.2503 23.2408 97.7473 23.025 96.4468 22.3158C95.5721 21.8189 94.8493 21.0826 94.359 20.1892C93.8639 19.302 93.6045 18.2972 93.6066 17.2751C93.595 16.5204 93.7356 15.7713 94.0196 15.0748C94.3029 14.3803 94.7239 13.7537 95.256 13.2349C95.8022 12.6853 96.4508 12.2543 97.1632 11.9675C97.8737 11.6811 98.6335 11.5453 99.3966 11.5684C100.354 11.5328 101.305 11.7413 102.164 12.1751C103.026 12.6103 103.77 13.2564 104.331 14.0564L105.7 13.1558C105.317 12.4769 104.808 11.8819 104.201 11.4048L104.194 11.4192V11.4201ZM86.6872 24.3858H88.4462V10.2085H86.6872V15.8235H78.7339V10.2364H76.9758V24.4155H78.7348V17.5745H86.688V24.3876L86.6872 24.3858ZM72.7545 5.24512H72.3362L60.0792 20.1748V5.28736H58.2316V24.429H58.649L70.8297 9.75278V24.4281H72.7527V5.24512H72.7545ZM23.5459 21.6426C23.971 21.4963 24.4206 21.4397 24.8675 21.4763C25.3145 21.5129 25.7497 21.642 26.1467 21.8556C26.6465 22.119 27.0771 22.5055 27.3997 22.9819C27.7228 23.4591 27.9272 24.0099 27.9954 24.5865C28.0635 25.1631 27.9933 25.748 27.7908 26.2905C27.5897 26.832 27.2621 27.3147 26.8368 27.6963C26.4148 28.0768 25.9071 28.3438 25.3594 28.4731C24.8117 28.6024 24.2412 28.59 23.6993 28.4369C23.1569 28.2836 22.6599 27.9952 22.2525 27.5974C21.8431 27.1978 21.5354 26.7016 21.3563 26.1521C21.0757 25.2532 21.1485 24.2762 21.558 23.4322C21.9652 22.5911 22.6795 21.9475 23.5459 21.6426ZM20.6855 26.3795C20.9459 27.2449 21.4691 28.0026 22.1788 28.5421C22.704 28.9406 23.3149 29.2039 23.9601 29.3098C24.6053 29.4157 25.2659 29.3611 25.8863 29.1506C26.9327 28.7851 27.7958 28.0103 28.2871 26.9952C28.782 25.9754 28.8685 24.7978 28.5283 23.7135C28.3652 23.1742 28.0994 22.6735 27.7461 22.2403C27.3945 21.8087 26.9622 21.4536 26.4746 21.1959C25.9953 20.9376 25.47 20.7814 24.9302 20.7364C24.3905 20.6915 23.8474 20.7588 23.3337 20.9343C22.2889 21.3044 21.4281 22.0808 20.9372 23.096C20.4428 24.1161 20.3548 25.2932 20.6916 26.3786H20.6855V26.3795ZM45.0907 30.9366C44.9477 31.0439 44.7818 31.1147 44.6067 31.1431C44.4316 31.1716 44.2525 31.1568 44.0841 31.1002L32.1489 27.0239C31.972 26.9621 31.8222 26.8379 31.7263 26.6734C31.6294 26.5083 31.5922 26.3136 31.621 26.1233C31.6426 25.9312 31.731 25.7534 31.8701 25.6226C32.0078 25.4925 32.187 25.4184 32.3743 25.4141L42.7916 25.2236L42.9415 25.06L42.7907 24.9045L32.4698 24.7058C32.2568 24.6994 32.053 24.6156 31.8946 24.4694C31.735 24.3221 31.6311 24.122 31.6009 23.9041C31.5644 23.6855 31.6034 23.4608 31.7113 23.2686C31.8183 23.0771 31.9884 22.9306 32.1901 22.8551L41.9498 19.3101L42.0375 19.1196L41.8533 19.0126L31.9981 22.1531C31.7939 22.218 31.5738 22.2052 31.3781 22.1172C31.182 22.0279 31.0234 21.8698 30.9309 21.6714V21.6219C30.8337 21.425 30.8057 21.1996 30.8517 20.984C30.8977 20.7683 31.0149 20.5755 31.1835 20.4382L39.3963 13.9081V13.6897L39.1911 13.6537L30.6845 19.9357C30.533 20.0455 30.348 20.0958 30.1633 20.0777C29.9786 20.0596 29.8063 19.9741 29.6779 19.8368C29.5443 19.6991 29.4629 19.5172 29.4479 19.3237C29.433 19.1301 29.4856 18.9373 29.5963 18.7798L36.9393 8.11061C37.0415 7.96173 37.1766 7.83974 37.3335 7.7546C37.4905 7.66946 37.6649 7.6236 37.8425 7.62074C39.2183 7.58256 40.574 7.96626 41.7358 8.72272C42.9027 9.483 43.8246 10.5796 44.3857 11.8749C44.8889 13.0535 45.0914 14.344 44.9741 15.6249L44.8303 17.0432C44.7967 17.3909 44.8328 17.7419 44.9364 18.0747C45.04 18.4075 45.2089 18.715 45.4327 18.9784L46.3359 20.0274C47.1658 20.994 47.7387 22.1636 47.9993 23.4232C48.276 24.833 48.1481 26.2947 47.6311 27.6315C47.1167 28.964 46.2338 30.1134 45.0907 30.9384V30.9366ZM36.1045 7.45805L28.7265 18.112C28.6202 18.2676 28.4625 18.3785 28.2826 18.4241C28.1026 18.4698 27.9127 18.447 27.7479 18.36C27.5798 18.2738 27.4471 18.1292 27.3734 17.952C27.2995 17.7737 27.2893 17.5745 27.3445 17.3893L30.3557 6.90437L30.2592 6.70573L30.0953 6.8046L26.7079 17.0423C26.64 17.2499 26.5031 17.4265 26.3212 17.5412C26.1391 17.6561 25.9229 17.7004 25.7118 17.6661C25.5006 17.6318 25.3084 17.5212 25.1698 17.3542C25.0295 17.1864 24.9512 16.9731 24.9489 16.752L24.7568 5.90486L24.62 5.76285L24.4622 5.91834L24.2851 16.7655C24.2818 16.9855 24.204 17.1974 24.065 17.365C23.9264 17.5322 23.7353 17.6437 23.5257 17.6796C23.3056 17.7291 23.0759 17.6904 22.8812 17.5727C22.6868 17.4538 22.5428 17.2646 22.4778 17.0423L19.1457 6.8046L18.9607 6.70573L18.8642 6.90347L21.8824 17.3749C21.9374 17.5607 21.9271 17.7603 21.8534 17.9391C21.7798 18.1179 21.6473 18.2646 21.4791 18.3538C21.3143 18.4407 21.1243 18.4635 20.9444 18.4179C20.7645 18.3722 20.6067 18.2613 20.5005 18.1057L13.1224 7.47153C13.0101 7.32278 12.9336 7.14895 12.8992 6.96418C12.8648 6.77942 12.8733 6.58893 12.9243 6.40821C13.1815 5.41614 13.6452 4.49288 14.2834 3.70181C14.9193 2.91383 15.7153 2.27762 16.6159 1.83763C17.5135 1.39976 18.494 1.16941 19.488 1.16289C20.482 1.15636 21.4653 1.37382 22.3682 1.79987L23.6213 2.38771C23.925 2.53123 24.2554 2.60555 24.5898 2.60555C24.9242 2.60555 25.2546 2.53123 25.5583 2.38771L26.8035 1.80707C27.9218 1.27795 29.1584 1.06684 30.3838 1.19586C31.7503 1.37492 33.0346 1.96408 34.0754 2.88926C35.1212 3.81913 35.8792 5.0419 36.2562 6.40731C36.3101 6.58446 36.3232 6.77198 36.2946 6.9552C36.266 7.13842 36.1965 7.31237 36.0914 7.46345L36.1054 7.45625L36.1045 7.45805ZM12.2192 8.10971L19.5903 18.7447C19.6986 18.9026 19.7503 19.0941 19.7365 19.2866C19.7228 19.4791 19.6445 19.6608 19.5149 19.8009L19.4877 19.8782C19.3608 20.0177 19.189 20.1054 19.0039 20.125C18.8189 20.1447 18.6331 20.095 18.481 19.9851L9.92621 13.7113L9.72102 13.7463V13.9584L17.9891 20.5092C18.1585 20.6444 18.277 20.8356 18.3245 21.0502C18.372 21.2649 18.3455 21.4897 18.2495 21.6866C18.1564 21.8844 17.9971 22.0413 17.8006 22.1289C17.6041 22.217 17.3849 22.2277 17.1806 22.1612L7.31926 18.9928L7.13423 19.0989L7.2228 19.2903L16.9895 22.8354C17.1903 22.91 17.3577 23.0556 17.4656 23.2452C17.5735 23.4358 17.6129 23.6587 17.5778 23.8771C17.5477 24.0946 17.444 24.2944 17.285 24.4416C17.1264 24.588 16.9222 24.6718 16.7089 24.678L6.381 24.8766L6.23105 25.033L6.381 25.1948L16.8115 25.3871C16.9984 25.3924 17.1771 25.4668 17.3148 25.5966C17.4535 25.7273 17.5421 25.9046 17.5647 26.0963C17.5679 26.1102 17.5679 26.1247 17.5647 26.1386C17.5935 26.3289 17.5563 26.5236 17.4595 26.6887C17.3637 26.853 17.2143 26.9772 17.0377 27.0392L5.12092 31.1073C4.94892 31.1691 4.76476 31.1865 4.58463 31.1582C4.40451 31.1298 4.23395 31.0565 4.08796 30.9447C2.94633 30.1169 2.06503 28.9659 1.55203 27.6324C1.03635 26.2946 0.909355 24.8324 1.18638 23.4223C1.45223 22.169 2.0243 21.0055 2.84894 20.0409L3.76615 18.9704C3.99076 18.7091 4.15972 18.4027 4.26224 18.0707C4.36476 17.7387 4.39858 17.3885 4.36155 17.0423L4.22476 15.624C4.06956 14.1591 4.33854 12.6799 4.99816 11.3707C5.60576 10.218 6.50744 9.25614 7.60687 8.58789C8.70162 7.92296 9.95331 7.5785 11.2257 7.59198H11.3283C11.5058 7.59473 11.6802 7.64046 11.8371 7.72544C11.9941 7.81042 12.1292 7.93223 12.2315 8.08095L12.2184 8.10881L12.2192 8.10971ZM4.70441 32.9518C4.75946 32.7684 4.85658 32.6012 4.98764 32.4642C5.11869 32.3272 5.27986 32.2244 5.45764 32.1644L17.3656 28.0953C17.542 28.0374 17.7327 28.0463 17.9032 28.1205C18.074 28.1948 18.2135 28.3289 18.2969 28.4989C18.3829 28.6721 18.408 28.8703 18.3681 29.0602C18.3281 29.2501 18.2256 29.4201 18.0777 29.5416L9.76224 36.184V36.4042H9.96743L18.4407 30.1932C18.6134 30.0684 18.8238 30.0106 19.0342 30.0302C19.2447 30.0498 19.4415 30.1455 19.5894 30.3002C19.7404 30.4591 19.8332 30.6666 19.8521 30.8875C19.8709 31.1085 19.8147 31.3294 19.6929 31.5127L13.7792 40.4382L13.8143 40.6575H14.0195L20.24 31.9298C20.3654 31.7536 20.547 31.6296 20.753 31.5801C20.9609 31.5339 21.1779 31.5638 21.3665 31.6646C21.5551 31.7654 21.7032 31.9308 21.7851 32.132C21.8675 32.3361 21.878 32.5635 21.814 32.7747L18.8028 43.1527L18.8993 43.3441L19.1448 43.274L22.5673 32.923C22.6263 32.7402 22.7477 32.5854 22.9093 32.4871C23.07 32.3896 23.2599 32.3557 23.4433 32.3918C23.6324 32.416 23.8062 32.5107 23.9317 32.6578C24.0579 32.806 24.1273 32.996 24.1272 33.1926V46.3786C24.1272 46.5641 24.0852 46.7471 24.0045 46.9132C23.9239 47.0792 23.8068 47.2239 23.6625 47.3358H23.6274C22.6208 48.1532 21.4114 48.666 20.1356 48.8162C18.8598 48.9665 17.5684 48.7482 16.4072 48.1861C15.1413 47.5288 14.0954 46.4996 13.403 45.2299L12.7191 43.9823C12.5545 43.6798 12.3295 43.4164 12.0588 43.2093C11.7892 43.0031 11.4798 42.8582 11.1512 42.7841L9.81748 42.4938C8.43212 42.198 7.16566 41.4818 6.18282 40.4382C5.30745 39.4407 4.70909 38.2209 4.45011 36.9057C4.18965 35.5878 4.27744 34.2233 4.70441 32.9518ZM18.5091 27.1237C17.9856 25.4312 18.123 23.5965 18.8923 22.0057C19.2679 21.2219 19.7916 20.5222 20.433 19.9474C21.0719 19.3751 21.8161 18.9396 22.6216 18.6665C23.2645 18.4371 23.9402 18.3195 24.6209 18.3187C25.9834 18.3261 27.3078 18.7803 28.4003 19.6148C29.4991 20.4541 30.3106 21.6283 30.7187 22.9693C31.2474 24.6646 31.1074 26.5047 30.3285 28.0953C29.7679 29.2765 28.8744 30.2581 27.7636 30.9132C26.6575 31.5656 25.3843 31.8588 24.1121 31.7542C22.84 31.6496 21.6287 31.152 20.6381 30.3272C19.6415 29.4981 18.9095 28.3825 18.5363 27.1237H18.5091ZM25.1541 33.207C25.1529 33.0154 25.2178 32.8295 25.3373 32.6821C25.4558 32.5355 25.6216 32.4373 25.8047 32.4053C25.989 32.3713 26.1791 32.4071 26.3396 32.5059C26.5001 32.6048 26.6202 32.7603 26.6807 32.9446L30.0953 43.274L30.2803 43.3729L30.3767 43.1814L27.3577 32.8313C27.2945 32.6156 27.305 32.3837 27.391 32.1752C27.475 31.9698 27.6264 31.8011 27.8192 31.6983C28.0119 31.5955 28.2336 31.5651 28.4459 31.6125C28.6563 31.6619 28.8431 31.7869 28.9729 31.9657L35.1812 40.5946H35.3925V40.3815L29.4797 31.519C29.3576 31.3342 29.3017 31.1118 29.3217 30.8895C29.3417 30.6672 29.4363 30.459 29.5893 30.3002C29.7408 30.1358 29.9463 30.0347 30.1662 30.0165C30.3861 29.9982 30.6048 30.0641 30.7801 30.2013L39.2455 36.397H39.4515L39.4165 36.1768L31.1019 29.5703C30.9483 29.4501 30.8408 29.2784 30.7982 29.0852C30.7556 28.892 30.7805 28.6896 30.8687 28.5133C30.9537 28.3396 31.0969 28.2031 31.272 28.1286C31.4474 28.054 31.6412 28.0477 31.8201 28.1097L43.7833 32.1572C43.9461 32.2199 44.0925 32.3204 44.2112 32.4508C44.3298 32.5811 44.4175 32.7378 44.4673 32.9086V32.9518C44.8978 34.2191 44.9908 35.5836 44.7347 36.9012C44.4807 38.2164 43.8875 39.4377 43.0169 40.4382C42.0517 41.4887 40.799 42.2153 39.4235 42.5226L38.0556 42.8273C37.7355 42.8992 37.433 43.0385 37.1682 43.2372C36.9023 43.4367 36.6798 43.6908 36.5149 43.9832L35.8309 45.2371C35.3509 46.131 34.6877 46.9077 33.8869 47.5138C33.0894 48.1171 32.1731 48.5346 31.2019 48.7371C30.2321 48.9393 29.2309 48.9212 28.2687 48.6841C27.3049 48.4465 26.4033 47.9962 25.6267 47.3646H25.5916C25.4487 47.2519 25.333 47.1068 25.2536 46.9408C25.1742 46.7748 25.1333 46.5922 25.1339 46.4073L25.1541 33.207ZM49.0323 23.203C48.7325 21.7592 48.0751 20.4188 47.1233 19.311L46.2202 18.2621C46.0952 18.1156 46.0009 17.9443 45.9431 17.759C45.8853 17.5736 45.8653 17.378 45.8843 17.1844L46.0281 15.7669C46.1795 14.2931 45.9603 12.8041 45.3915 11.4417C44.7498 9.94641 43.6908 8.67918 42.3479 7.79961C41.0109 6.92456 39.4492 6.47944 37.8635 6.52146H37.4119L37.2751 6.06755C36.8407 4.49157 35.9648 3.08086 34.7559 2.0102C33.5534 0.94508 32.0697 0.269704 30.4925 0.0696137C29.0864 -0.0754235 27.6682 0.169511 26.3861 0.778796L25.1409 1.36034C24.9712 1.43543 24.7883 1.47417 24.6034 1.47417C24.4185 1.47417 24.2356 1.43543 24.0659 1.36034L22.8067 0.736551C21.7655 0.244264 20.6314 -0.00714627 19.4848 0.000154573C18.3383 0.00745542 17.2073 0.273288 16.1722 0.778796C15.1339 1.28646 14.2163 2.02055 13.4837 2.92971C12.748 3.84278 12.214 4.90837 11.9185 6.05317L11.7817 6.50708H11.302C9.82843 6.48564 8.37756 6.88092 7.10881 7.6495C5.83448 8.42223 4.79025 9.53705 4.08884 10.8736C3.33539 12.3759 3.02607 14.0709 3.19881 15.7507L3.34262 17.1691C3.36249 17.3615 3.34296 17.556 3.28528 17.7401C3.2276 17.9243 3.13304 18.0941 3.00765 18.2387L2.03519 19.3173C1.09792 20.4276 0.452633 21.7647 0.160429 23.2021C-0.153056 24.8207 -0.00510518 26.4977 0.586592 28.0324C1.17585 29.5621 2.18567 30.8835 3.49344 31.8363L3.85559 32.1131L3.69775 32.5949C3.21667 34.0528 3.12643 35.6165 3.43644 37.1224C3.74504 38.625 4.44329 40.0146 5.45764 41.1447C6.55655 42.3604 7.98771 43.2081 9.56406 43.5769L10.8917 43.8744C11.0745 43.9132 11.247 43.9922 11.3971 44.1062C11.5471 44.2201 11.6712 44.3661 11.7606 44.5342L12.4446 45.7889C13.2324 47.2413 14.4237 48.4209 15.8671 49.1776C17.2013 49.8444 18.6927 50.1097 20.1681 49.9426C21.6436 49.7756 23.0425 49.183 24.2027 48.2338L24.62 47.9506L25.0173 48.2563C26.4314 49.3756 28.1648 49.9882 29.9515 50C31.1186 50.0013 32.2697 49.7221 33.3125 49.1847C34.7529 48.4241 35.9429 47.2455 36.7341 45.7961L37.4181 44.5342C37.5117 44.3653 37.6397 44.2191 37.7932 44.1052C37.9467 43.9914 38.1223 43.9127 38.3081 43.8744L39.6769 43.5769C41.2536 43.2089 42.6849 42.3611 43.7833 41.1447C44.7832 40.0144 45.4693 38.6301 45.7703 37.1358C46.0725 35.6387 45.9796 34.0861 45.5011 32.6381L45.3433 32.1482L45.7063 31.8723C47.0128 30.9185 48.0211 29.5964 48.6088 28.0666C49.1995 26.5319 49.3465 24.8552 49.0323 23.2371" fill="#6CCC61"/>
</svg>
