<svg width="350" height="50" viewBox="0 0 350 50" fill="none" xmlns="http://www.w3.org/2000/svg">
<path d="M52.6981 6.33358C52.6981 6.04174 52.7357 5.77599 52.8127 5.53633C52.8888 5.29667 52.9925 5.09566 53.1209 4.93331C53.2493 4.77096 53.4014 4.63374 53.5762 4.52164C53.751 4.40954 53.9338 4.32837 54.1254 4.27811C54.317 4.22786 54.5156 4.2037 54.722 4.2037H54.8869V3.63354H55.5102V4.20274H55.6672C55.8747 4.20274 56.0742 4.22786 56.2658 4.27715C56.4574 4.3274 56.6412 4.40761 56.816 4.51874C56.9908 4.62987 57.1439 4.7671 57.2743 4.92848C57.4047 5.09083 57.5084 5.29184 57.5844 5.53343C57.6605 5.77406 57.7 6.04077 57.7 6.33262C57.7 6.69501 57.6457 7.01681 57.5351 7.29899C57.4254 7.58117 57.2743 7.8073 57.0827 7.97641C56.891 8.14649 56.6747 8.27406 56.4347 8.36006C56.1937 8.44607 55.9359 8.48956 55.6603 8.48956H55.5112V9.15635H54.8879V8.48956H54.7299C54.4543 8.48956 54.1965 8.44703 53.9565 8.36199C53.7165 8.27695 53.5021 8.15036 53.3115 7.98028C53.1209 7.8102 52.9717 7.58503 52.8621 7.30285C52.7524 7.02164 52.6981 6.69791 52.6981 6.33358ZM53.348 6.31812C53.348 6.84769 53.4745 7.2497 53.7273 7.52415C53.9802 7.7986 54.3111 7.93582 54.722 7.93582H54.8869V4.75357H54.7299C54.319 4.75357 53.9861 4.88596 53.7303 5.15075C53.4755 5.41457 53.348 5.80401 53.348 6.31812ZM55.5112 7.93582H55.6761C56.088 7.93582 56.4199 7.7986 56.6718 7.52415C56.9236 7.2497 57.0501 6.84769 57.0501 6.31812C57.0501 5.80401 56.9227 5.41457 56.6688 5.14978C56.414 4.88499 56.0801 4.7526 55.6692 4.7526H55.5122L55.5112 7.93582Z" fill="#3A3845"/>
<path d="M58.6795 9.15732V3.63354H61.5074V4.18728H59.3028V5.98182H61.3661V6.53555H59.3028V8.60649H61.5153V9.15732H58.6795Z" fill="#3A3845"/>
<path d="M62.0496 8.60649H62.425C62.6719 8.18515 62.8339 7.71453 62.9089 7.19655C62.985 6.67858 63.0225 5.96153 63.0225 5.04541V3.63354H66.0114V8.60649H66.4598V10.4455H65.8633V9.15732H62.6482V10.4455H62.0516V8.60649H62.0496ZM63.0976 8.60649H65.3872V4.18824H63.6458V5.62233C63.6458 6.88055 63.4631 7.87494 63.0976 8.60649Z" fill="#3A3845"/>
<path d="M67.2176 9.15732V3.63354H70.0465V4.18728H67.8418V5.98182H69.9042V6.53555H67.8418V8.60649H70.0534V9.15732H67.2176Z" fill="#3A3845"/>
<path d="M71.0115 9.15732V3.63354H72.5771C73.1105 3.63354 73.5273 3.76111 73.8285 4.01719C74.1288 4.27328 74.2799 4.66466 74.2799 5.19133C74.2799 5.44356 74.2493 5.66486 74.1861 5.85426C74.1229 6.04367 74.0399 6.19926 73.9333 6.32102C73.8276 6.44182 73.6952 6.54039 73.5372 6.6148C73.3781 6.68921 73.2132 6.74236 73.0394 6.77232C72.8665 6.80227 72.6719 6.81677 72.4576 6.81677H71.6348V9.15732H71.0115ZM71.6358 6.26594H72.2482C72.4033 6.26594 72.5376 6.26111 72.6502 6.25144C72.7618 6.24178 72.8744 6.22342 72.987 6.19733C73.0986 6.17123 73.1915 6.13354 73.2646 6.08329C73.3367 6.03304 73.4028 5.96926 73.4621 5.89002C73.5204 5.81174 73.5638 5.71414 73.5905 5.59818C73.6172 5.48221 73.631 5.34692 73.631 5.1923C73.631 4.82025 73.5312 4.56029 73.3317 4.41147C73.1332 4.26265 72.8319 4.18824 72.4289 4.18824H71.6368L71.6358 6.26594Z" fill="#3A3845"/>
<path d="M74.2996 9.15732L75.9067 3.63354H76.7374L78.3177 9.15635H77.6293L77.1808 7.56957H75.4009L74.9881 9.15732H74.2996ZM75.5501 7.01874H77.0426L76.3116 4.07904H76.2958L75.5501 7.01874Z" fill="#3A3845"/>
<path d="M78.5583 9.17954V8.63644C78.6324 8.66157 78.7124 8.67413 78.7994 8.67413C78.8705 8.67413 78.9347 8.66157 78.993 8.63644C79.0502 8.61132 79.1006 8.5688 79.1441 8.50888C79.1875 8.44897 79.2241 8.38326 79.2547 8.31078C79.2853 8.2383 79.311 8.14166 79.3308 8.02087C79.3515 7.90007 79.3683 7.77927 79.3811 7.65944C79.394 7.53961 79.4038 7.38693 79.4098 7.20042C79.4167 7.01488 79.4206 6.83706 79.4226 6.66891C79.4246 6.50077 79.4266 6.293 79.4266 6.04561V3.63354H82.5774V9.15635H81.9542V4.18824H80.0518V6.37514C80.0518 6.54715 80.0518 6.68921 80.0498 6.80227C80.0479 6.91437 80.0439 7.05739 80.036 7.23134C80.0291 7.40529 80.0182 7.55024 80.0054 7.66814C79.9925 7.78604 79.9728 7.9194 79.9461 8.07015C79.9194 8.2209 79.8878 8.34653 79.8513 8.44704C79.8147 8.54657 79.7673 8.65094 79.711 8.75821C79.6537 8.86547 79.5895 8.95051 79.5174 9.01236C79.4453 9.07518 79.3594 9.12639 79.2616 9.16602C79.1638 9.20564 79.0542 9.22593 78.9347 9.22593C78.8083 9.224 78.6838 9.2095 78.5583 9.17954Z" fill="#3A3845"/>
<path d="M83.7537 9.15732V3.63354H84.3779V5.98182H85.1236C85.338 5.98182 85.5316 5.99632 85.7054 6.02628C85.8783 6.05624 86.0442 6.10842 86.2013 6.1838C86.3583 6.25821 86.4897 6.35581 86.5954 6.47564C86.7011 6.59547 86.785 6.75009 86.8482 6.9395C86.9105 7.12891 86.9421 7.34924 86.9421 7.59856C86.9421 8.12813 86.7929 8.51951 86.4946 8.77463C86.1963 9.02879 85.7815 9.15635 85.2511 9.15635L83.7537 9.15732ZM84.3779 8.60649H85.093C85.4931 8.60649 85.7933 8.53208 85.9919 8.38326C86.1904 8.23443 86.2912 7.97351 86.2912 7.59856C86.2912 7.38113 86.2605 7.20138 86.2013 7.05933C86.142 6.91727 86.0492 6.80807 85.9237 6.73366C85.7983 6.65925 85.657 6.60707 85.499 6.57808C85.3409 6.54908 85.1454 6.53555 84.9133 6.53555H84.3779V8.60649Z" fill="#3A3845"/>
<path d="M87.9236 9.15732V3.63354H88.5468V5.98182H90.705V3.63354H91.3283V9.15635H90.705V6.53555H88.5468V9.15635L87.9236 9.15732Z" fill="#3A3845"/>
<path d="M92.3533 6.38951C92.3533 6.18754 92.3582 6.00103 92.3691 5.82998C92.379 5.65893 92.4007 5.47339 92.4343 5.27238C92.4669 5.07138 92.5113 4.89067 92.5666 4.73122C92.621 4.57177 92.696 4.41425 92.7908 4.25963C92.8847 4.10501 92.9953 3.97552 93.1217 3.87211C93.2482 3.76871 93.4042 3.6856 93.5909 3.62279C93.7766 3.56094 93.983 3.52905 94.2102 3.52905C94.389 3.52905 94.5549 3.54838 94.708 3.58703C94.8611 3.62569 94.9955 3.67787 95.112 3.74455C95.2276 3.81027 95.3333 3.89337 95.4281 3.99194C95.5219 4.09051 95.6029 4.19488 95.6691 4.30408C95.7353 4.41425 95.7926 4.53794 95.8419 4.67613C95.8903 4.81529 95.9289 4.95058 95.9585 5.08491C95.9862 5.21827 96.0099 5.36322 96.0276 5.51881C96.0454 5.67439 96.0583 5.82032 96.0642 5.95657C96.0701 6.09283 96.0731 6.23682 96.0731 6.38951C96.0731 6.62917 96.0672 6.8437 96.0553 7.03311C96.0444 7.22252 96.0227 7.42159 95.9901 7.6284C95.9585 7.83617 95.9141 8.01688 95.8587 8.17343C95.8024 8.32998 95.7274 8.47977 95.6325 8.62472C95.5387 8.76968 95.4271 8.88854 95.2977 8.98228C95.1683 9.07602 95.0122 9.15043 94.8285 9.20551C94.6448 9.26059 94.4374 9.28765 94.2082 9.28765C93.9791 9.28765 93.7726 9.25963 93.5889 9.20551C93.4052 9.15043 93.2491 9.07602 93.1217 8.98228C92.9943 8.88854 92.8837 8.76968 92.7889 8.62472C92.695 8.47977 92.62 8.32901 92.5646 8.17343C92.5103 8.01784 92.4659 7.83617 92.4323 7.6284C92.3997 7.42159 92.378 7.22252 92.3671 7.03311C92.3582 6.8437 92.3533 6.62917 92.3533 6.38951ZM93.0042 6.28804C93.0042 6.63207 93.0131 6.92391 93.0309 7.16261C93.0486 7.4013 93.0822 7.6255 93.1326 7.83617C93.183 8.04683 93.2511 8.21498 93.34 8.33771C93.4279 8.46141 93.5435 8.55804 93.6877 8.62762C93.8319 8.6972 94.0057 8.73199 94.2102 8.73199C94.3811 8.73199 94.5302 8.70976 94.6586 8.66434C94.7861 8.61989 94.8947 8.54838 94.9846 8.45078C95.0735 8.35317 95.1476 8.24107 95.2049 8.11351C95.2621 7.98595 95.3066 7.82553 95.3382 7.63226C95.3708 7.43899 95.3925 7.23895 95.4054 7.03118C95.4182 6.82438 95.4251 6.57795 95.4251 6.29384C95.4251 6.03195 95.4143 5.79616 95.3945 5.58646C95.3738 5.37675 95.3352 5.17478 95.2799 4.98151C95.2236 4.78823 95.1505 4.62685 95.0597 4.49832C94.9698 4.3698 94.8513 4.26736 94.7061 4.19102C94.5609 4.11467 94.391 4.07698 94.1964 4.07698C94.0077 4.07698 93.8428 4.11467 93.7025 4.19102C93.5623 4.26736 93.4487 4.36883 93.3598 4.49639C93.2719 4.62395 93.2007 4.78437 93.1474 4.97764C93.0931 5.17092 93.0565 5.37192 93.0358 5.58066C93.0141 5.79133 93.0042 6.02615 93.0042 6.28804Z" fill="#3A3845"/>
<path d="M97.0974 9.15732V3.63354H99.9253V4.18728H97.7207V5.98182H99.7831V6.53555H97.7207V8.60649H99.9332V9.15732H97.0974Z" fill="#3A3845"/>
<path d="M102.771 9.15732V3.63354H105.419V4.18728H103.395V9.15635L102.771 9.15732Z" fill="#3A3845"/>
<path d="M105.957 6.38951C105.957 6.18754 105.962 6.00103 105.972 5.82998C105.981 5.65893 106.003 5.47339 106.037 5.27238C106.069 5.07138 106.114 4.89067 106.169 4.73122C106.223 4.57177 106.299 4.41425 106.392 4.25963C106.486 4.10501 106.598 3.97552 106.723 3.87211C106.85 3.76871 107.006 3.6856 107.192 3.62279C107.378 3.56094 107.586 3.52905 107.813 3.52905C107.991 3.52905 108.156 3.54838 108.31 3.58703C108.463 3.62569 108.597 3.67787 108.714 3.74455C108.83 3.81027 108.935 3.89337 109.03 3.99194C109.123 4.09051 109.204 4.19488 109.271 4.30408C109.337 4.41425 109.394 4.53794 109.442 4.67613C109.491 4.81529 109.53 4.95058 109.559 5.08491C109.589 5.21827 109.612 5.36322 109.63 5.51881C109.648 5.67439 109.66 5.82032 109.667 5.95657C109.674 6.09283 109.677 6.23682 109.677 6.38951C109.677 6.62917 109.671 6.8437 109.66 7.03311C109.648 7.22252 109.626 7.42159 109.595 7.6284C109.562 7.83617 109.519 8.01688 109.462 8.17343C109.406 8.32998 109.331 8.47977 109.237 8.62472C109.142 8.76968 109.031 8.88854 108.902 8.98228C108.773 9.07602 108.617 9.15043 108.433 9.20551C108.249 9.26059 108.043 9.28765 107.814 9.28765C107.585 9.28765 107.377 9.25963 107.193 9.20551C107.01 9.15043 106.855 9.07602 106.727 8.98228C106.599 8.88854 106.488 8.76968 106.394 8.62472C106.3 8.47977 106.225 8.32901 106.171 8.17343C106.116 8.01784 106.072 7.83617 106.039 7.6284C106.005 7.42159 105.983 7.22252 105.974 7.03311C105.962 6.8437 105.957 6.62917 105.957 6.38951ZM106.608 6.28804C106.608 6.63207 106.617 6.92391 106.634 7.16261C106.652 7.4013 106.686 7.6255 106.736 7.83617C106.785 8.04683 106.855 8.21498 106.943 8.33771C107.03 8.46141 107.147 8.55804 107.29 8.62762C107.434 8.6972 107.608 8.73199 107.813 8.73199C107.984 8.73199 108.133 8.70976 108.26 8.66434C108.388 8.61989 108.496 8.54838 108.585 8.45078C108.675 8.35317 108.748 8.24107 108.805 8.11351C108.864 7.98595 108.908 7.82553 108.94 7.63226C108.971 7.43899 108.994 7.23895 109.007 7.03118C109.02 6.82438 109.026 6.57795 109.026 6.29384C109.026 6.03195 109.016 5.79616 108.995 5.58646C108.974 5.37675 108.936 5.17478 108.88 4.98151C108.824 4.78823 108.751 4.62685 108.66 4.49832C108.569 4.3698 108.452 4.26736 108.306 4.19102C108.16 4.11467 107.991 4.07698 107.797 4.07698C107.607 4.07698 107.443 4.11467 107.303 4.19102C107.163 4.26736 107.048 4.36883 106.96 4.49639C106.872 4.62395 106.801 4.78437 106.748 4.97764C106.695 5.17092 106.658 5.37192 106.637 5.58066C106.618 5.79133 106.608 6.02615 106.608 6.28804Z" fill="#3A3845"/>
<path d="M110.544 6.32596C110.544 6.13172 110.55 5.94811 110.561 5.77706C110.572 5.60602 110.595 5.42337 110.629 5.22817C110.661 5.03393 110.705 4.85708 110.759 4.70053C110.812 4.54301 110.885 4.38936 110.977 4.23957C111.069 4.08978 111.176 3.96415 111.297 3.86365C111.418 3.76218 111.566 3.68101 111.741 3.62013C111.916 3.55924 112.11 3.52832 112.325 3.52832C112.669 3.52832 112.965 3.60756 113.211 3.76605C113.456 3.92453 113.637 4.13423 113.754 4.39515C113.87 4.65607 113.929 4.95468 113.929 5.29195H113.304C113.304 4.48309 112.967 4.07915 112.29 4.07915C112.172 4.07915 112.065 4.09751 111.966 4.1352C111.867 4.17289 111.783 4.21927 111.711 4.27339C111.64 4.32847 111.576 4.40289 111.521 4.49566C111.464 4.58939 111.418 4.67927 111.383 4.76527C111.347 4.85128 111.317 4.95662 111.293 5.08224C111.27 5.20691 111.251 5.31417 111.238 5.40404C111.225 5.49392 111.216 5.60505 111.209 5.73744C111.202 5.86984 111.199 5.97034 111.198 6.03895C111.197 6.10756 111.196 6.1984 111.196 6.3105C111.196 6.49991 111.198 6.66419 111.201 6.80142C111.205 6.93864 111.215 7.09713 111.232 7.27687C111.249 7.45662 111.272 7.61027 111.301 7.73783C111.33 7.86539 111.372 7.99585 111.427 8.12921C111.482 8.26257 111.547 8.3708 111.622 8.45294C111.697 8.53508 111.791 8.60273 111.905 8.65491C112.018 8.7071 112.147 8.73319 112.29 8.73319C112.448 8.73319 112.585 8.7071 112.701 8.65491C112.816 8.60273 112.91 8.53412 112.98 8.44908C113.051 8.36404 113.109 8.25097 113.154 8.10795C113.2 7.96589 113.233 7.82384 113.254 7.68275C113.275 7.54166 113.291 7.36868 113.303 7.16381H113.928C113.91 7.503 113.872 7.79485 113.817 8.03837C113.761 8.2819 113.675 8.50126 113.558 8.69743C113.443 8.89361 113.283 9.0405 113.079 9.13907C112.877 9.23764 112.63 9.28692 112.338 9.28692C112.109 9.28692 111.902 9.25406 111.716 9.18738C111.531 9.12071 111.377 9.03566 111.255 8.93033C111.132 8.82596 111.026 8.69164 110.935 8.52832C110.845 8.365 110.775 8.20265 110.724 8.04127C110.674 7.87989 110.635 7.69241 110.608 7.47788C110.579 7.26334 110.561 7.07103 110.555 6.90095C110.548 6.7328 110.544 6.5405 110.544 6.32596Z" fill="#3A3845"/>
<path d="M114.44 3.63354H115.106L116.423 7.4681L117.629 3.63354H118.279L116.731 8.2412C116.6 8.63354 116.453 8.90703 116.29 9.05875C116.126 9.21143 115.925 9.28778 115.685 9.28778C115.478 9.28778 115.318 9.26362 115.207 9.21627V8.66543C115.296 8.70989 115.435 8.73308 115.623 8.73308C115.738 8.73308 115.832 8.69732 115.903 8.62485C115.975 8.55237 116.04 8.41514 116.101 8.21317L114.44 3.63354Z" fill="#3A3845"/>
<path d="M118.091 8.60649H118.466C118.713 8.18515 118.875 7.71453 118.95 7.19655C119.025 6.67858 119.063 5.96153 119.063 5.04541V3.63354H122.052V8.60649H122.5V10.4455H121.903V9.15732H118.688V10.4455H118.092L118.091 8.60649ZM119.139 8.60649H121.429V4.18824H119.688V5.62233C119.687 6.88055 119.504 7.87494 119.139 8.60649Z" fill="#3A3845"/>
<path d="M122.785 9.15733L124.392 3.63452H125.223L126.804 9.15733H126.116L125.667 7.56958H123.887L123.475 9.15733H122.785ZM124.037 7.01875H125.529L124.798 4.07905H124.783L124.037 7.01875Z" fill="#3A3845"/>
<path d="M127.516 9.15732V3.63354H129.081C129.615 3.63354 130.031 3.76111 130.333 4.01719C130.633 4.27328 130.784 4.66466 130.784 5.19133C130.784 5.44356 130.753 5.66486 130.69 5.85426C130.627 6.04367 130.544 6.19926 130.437 6.32102C130.332 6.44182 130.199 6.54039 130.041 6.6148C129.882 6.68921 129.717 6.74236 129.543 6.77232C129.371 6.80227 129.176 6.81677 128.962 6.81677H128.139V9.15732H127.516ZM128.139 6.26594H128.751C128.906 6.26594 129.041 6.26111 129.153 6.25144C129.265 6.24178 129.377 6.22342 129.49 6.19733C129.602 6.17123 129.695 6.13354 129.768 6.08329C129.84 6.03304 129.906 5.96926 129.965 5.89002C130.023 5.81174 130.067 5.71414 130.094 5.59818C130.12 5.48221 130.134 5.34692 130.134 5.1923C130.134 4.82025 130.034 4.56029 129.835 4.41147C129.636 4.26265 129.335 4.18824 128.932 4.18824H128.14V6.26594H128.139Z" fill="#3A3845"/>
<path d="M131.644 6.32596C131.644 6.13172 131.65 5.94811 131.661 5.77706C131.673 5.60602 131.695 5.42337 131.728 5.22817C131.761 5.03393 131.804 4.85708 131.859 4.70053C131.912 4.54301 131.985 4.38936 132.077 4.23957C132.169 4.08978 132.276 3.96415 132.396 3.86365C132.518 3.76218 132.666 3.68101 132.84 3.62013C133.014 3.55924 133.209 3.52832 133.423 3.52832C133.767 3.52832 134.063 3.60756 134.309 3.76605C134.556 3.92453 134.737 4.13423 134.854 4.39515C134.969 4.65607 135.027 4.95468 135.027 5.29195H134.404C134.404 4.48309 134.065 4.07915 133.39 4.07915C133.272 4.07915 133.165 4.09751 133.067 4.1352C132.968 4.17289 132.883 4.21927 132.812 4.27339C132.74 4.32847 132.677 4.40289 132.62 4.49566C132.564 4.58939 132.519 4.67927 132.483 4.76527C132.447 4.85128 132.418 4.95662 132.393 5.08224C132.368 5.20691 132.35 5.31417 132.338 5.40404C132.325 5.49392 132.315 5.60505 132.309 5.73744C132.302 5.86984 132.299 5.97034 132.298 6.03895C132.296 6.10756 132.296 6.1984 132.296 6.3105C132.296 6.49991 132.298 6.66419 132.302 6.80142C132.305 6.93864 132.316 7.09713 132.333 7.27687C132.349 7.45662 132.372 7.61027 132.401 7.73783C132.431 7.86539 132.473 7.99585 132.527 8.12921C132.582 8.26257 132.648 8.3708 132.722 8.45294C132.797 8.53508 132.892 8.60273 133.005 8.65491C133.119 8.7071 133.247 8.73319 133.39 8.73319C133.548 8.73319 133.685 8.7071 133.802 8.65491C133.917 8.60273 134.01 8.53412 134.08 8.44908C134.15 8.36404 134.209 8.25097 134.255 8.10795C134.3 7.96589 134.334 7.82384 134.355 7.68275C134.374 7.54166 134.392 7.36868 134.405 7.16381H135.028C135.011 7.503 134.974 7.79485 134.917 8.03837C134.86 8.2819 134.775 8.50126 134.659 8.69743C134.542 8.89361 134.383 9.0405 134.18 9.13907C133.976 9.23764 133.73 9.28692 133.439 9.28692C133.21 9.28692 133.002 9.25406 132.817 9.18738C132.633 9.12264 132.479 9.0376 132.357 8.93226C132.234 8.8279 132.127 8.69357 132.038 8.53025C131.947 8.36694 131.877 8.20459 131.827 8.0432C131.777 7.88182 131.738 7.69434 131.711 7.47981C131.682 7.26527 131.665 7.07297 131.656 6.90289C131.648 6.7328 131.644 6.5405 131.644 6.32596Z" fill="#3A3845"/>
<path d="M135.534 4.18824V3.63354H139.082V4.18728H137.623V9.15635H137V4.18824H135.534Z" fill="#3A3845"/>
<path d="M139.786 9.15732V3.63354H141.268C141.78 3.63354 142.167 3.75627 142.427 4.0027C142.687 4.24912 142.817 4.58639 142.817 5.01545C142.817 5.32469 142.746 5.58658 142.603 5.80015C142.461 6.01371 142.257 6.15384 141.995 6.22148V6.23598C142.27 6.27077 142.502 6.40993 142.691 6.65345C142.88 6.89698 142.974 7.20428 142.974 7.57634C142.974 8.08851 142.834 8.47893 142.554 8.75048C142.273 9.02106 141.87 9.15732 141.345 9.15732H139.786ZM140.41 5.98182H141.188C141.517 5.98182 141.762 5.91225 141.924 5.77212C142.086 5.632 142.167 5.39234 142.167 5.05314C142.167 4.74874 142.089 4.5284 141.933 4.39215C141.778 4.25589 141.551 4.18824 141.252 4.18824H140.41V5.98182ZM140.41 8.60649H141.344C141.68 8.60649 141.927 8.52338 142.086 8.35716C142.244 8.19095 142.323 7.92809 142.323 7.5686C142.323 6.87958 141.979 6.53555 141.29 6.53555H140.41V8.60649Z" fill="#3A3845"/>
<path d="M143.963 9.15732V3.63354H146.792V4.18728H144.587V5.98182H146.649V6.53555H144.587V8.60649H146.799V9.15732H143.963Z" fill="#3A3845"/>
<path d="M147.757 9.15732V3.63354H148.38V5.98182H150.538V3.63354H151.161V9.15635H150.538V6.53555H148.38V9.15635L147.757 9.15732Z" fill="#3A3845"/>
<path d="M152.337 9.15732V3.63354H152.961V5.98182H155.119V3.63354H155.743V9.15635H155.119V6.53555H152.961V9.15635L152.337 9.15732Z" fill="#3A3845"/>
<path d="M156.766 6.38951C156.766 6.18754 156.771 6.00103 156.782 5.82998C156.792 5.65893 156.814 5.47339 156.847 5.27238C156.88 5.07138 156.925 4.89067 156.98 4.73122C157.034 4.57177 157.109 4.41425 157.203 4.25963C157.297 4.10501 157.408 3.97552 157.534 3.87211C157.66 3.76871 157.816 3.6856 158.003 3.62279C158.189 3.56094 158.396 3.52905 158.623 3.52905C158.801 3.52905 158.967 3.54838 159.12 3.58703C159.273 3.62569 159.408 3.67787 159.524 3.74455C159.641 3.81027 159.745 3.89337 159.84 3.99194C159.934 4.09051 160.015 4.19488 160.081 4.30408C160.147 4.41425 160.205 4.53794 160.253 4.67613C160.302 4.81529 160.341 4.95058 160.37 5.08491C160.399 5.21827 160.423 5.36322 160.441 5.51881C160.459 5.67439 160.47 5.82032 160.477 5.95657C160.484 6.09283 160.487 6.23682 160.487 6.38951C160.487 6.62917 160.481 6.8437 160.47 7.03311C160.459 7.22252 160.437 7.42159 160.405 7.6284C160.373 7.83617 160.329 8.01688 160.273 8.17343C160.217 8.32998 160.142 8.47977 160.048 8.62472C159.953 8.76968 159.841 8.88854 159.713 8.98228C159.583 9.07602 159.427 9.15043 159.244 9.20551C159.06 9.26059 158.854 9.28765 158.624 9.28765C158.395 9.28765 158.188 9.25963 158.004 9.20551C157.82 9.15043 157.665 9.07602 157.538 8.98228C157.409 8.88854 157.299 8.76968 157.205 8.62472C157.11 8.47977 157.036 8.32901 156.982 8.17343C156.926 8.01784 156.883 7.83617 156.849 7.6284C156.816 7.42159 156.794 7.22252 156.784 7.03311C156.771 6.8437 156.766 6.62917 156.766 6.38951ZM157.417 6.28804C157.417 6.63207 157.426 6.92391 157.444 7.16261C157.462 7.4013 157.495 7.6255 157.546 7.83617C157.595 8.04683 157.664 8.21498 157.752 8.33771C157.84 8.46141 157.957 8.55804 158.1 8.62762C158.244 8.6972 158.418 8.73199 158.622 8.73199C158.793 8.73199 158.942 8.70976 159.07 8.66434C159.197 8.61892 159.306 8.54838 159.395 8.45078C159.484 8.35317 159.558 8.24107 159.615 8.11351C159.673 7.98595 159.718 7.82553 159.749 7.63226C159.781 7.43899 159.804 7.23895 159.817 7.03118C159.829 6.82438 159.835 6.57795 159.835 6.29384C159.835 6.03195 159.825 5.79616 159.805 5.58646C159.784 5.37675 159.745 5.17478 159.69 4.98151C159.634 4.78823 159.561 4.62685 159.47 4.49832C159.379 4.3698 159.261 4.26736 159.115 4.19102C158.97 4.11467 158.8 4.07698 158.607 4.07698C158.417 4.07698 158.253 4.11467 158.113 4.19102C157.972 4.26736 157.858 4.36883 157.77 4.49639C157.682 4.62395 157.611 4.78437 157.558 4.97764C157.504 5.17092 157.468 5.37192 157.447 5.58066C157.427 5.79133 157.417 6.02615 157.417 6.28804Z" fill="#3A3845"/>
<path d="M161.511 9.15732V3.63354H164.339V4.18728H162.135V5.98182H164.198V6.53555H162.135V8.60649H164.347V9.15732H161.511Z" fill="#3A3845"/>
<path d="M167.184 9.15732V3.63354H169.99V4.18728H167.809V5.98182H168.554C168.769 5.98182 168.963 5.99632 169.136 6.02628C169.31 6.05624 169.475 6.10842 169.632 6.1838C169.789 6.25821 169.92 6.35581 170.027 6.47564C170.133 6.59547 170.217 6.75009 170.279 6.9395C170.342 7.12891 170.373 7.34924 170.373 7.59856C170.373 8.12813 170.224 8.51951 169.925 8.77463C169.626 9.02879 169.212 9.15635 168.681 9.15635L167.184 9.15732ZM167.808 8.60649H168.523C168.923 8.60649 169.223 8.53208 169.422 8.38326C169.62 8.23443 169.721 7.97351 169.721 7.59856C169.721 7.38113 169.691 7.20138 169.631 7.05933C169.572 6.91727 169.479 6.80807 169.353 6.73366C169.229 6.65925 169.087 6.60707 168.929 6.57808C168.77 6.54908 168.575 6.53555 168.343 6.53555H167.808V8.60649Z" fill="#3A3845"/>
<path d="M171.354 9.15719V3.63342H171.979V5.9817H172.958C172.958 5.72948 172.975 5.49368 173.008 5.27432C173.04 5.05495 173.1 4.83462 173.186 4.61525C173.271 4.39589 173.382 4.20744 173.518 4.05186C173.655 3.89531 173.834 3.76968 174.054 3.67304C174.275 3.57737 174.529 3.52905 174.817 3.52905C175.046 3.52905 175.255 3.55998 175.442 3.62279C175.627 3.6856 175.784 3.76871 175.911 3.87211C176.037 3.97552 176.147 4.10501 176.242 4.25963C176.336 4.41425 176.41 4.57177 176.464 4.73122C176.517 4.89067 176.561 5.07138 176.593 5.27238C176.627 5.47339 176.649 5.65893 176.658 5.82998C176.668 6.00103 176.674 6.18754 176.674 6.38951C176.674 6.62917 176.669 6.8437 176.658 7.03311C176.649 7.22252 176.627 7.42159 176.593 7.6284C176.561 7.83617 176.516 8.01688 176.462 8.17343C176.407 8.32998 176.332 8.47977 176.238 8.62472C176.144 8.76968 176.032 8.88854 175.905 8.98228C175.777 9.07602 175.622 9.15043 175.439 9.20551C175.255 9.26059 175.047 9.28765 174.818 9.28765C174.597 9.28765 174.396 9.26156 174.216 9.21131C174.036 9.16009 173.882 9.09051 173.754 9.00161C173.627 8.9127 173.515 8.80157 173.42 8.66628C173.324 8.53195 173.247 8.38893 173.189 8.23914C173.129 8.08935 173.083 7.91734 173.048 7.72213C173.014 7.52789 172.99 7.33752 172.977 7.15101C172.964 6.9645 172.958 6.75963 172.958 6.53446H171.979V9.15526H171.354V9.15719ZM173.608 6.29577C173.608 6.57988 173.614 6.82631 173.626 7.03311C173.638 7.24088 173.659 7.44092 173.691 7.63419C173.723 7.82747 173.767 7.98788 173.823 8.11545C173.879 8.24301 173.952 8.35511 174.041 8.45271C174.13 8.55031 174.239 8.62086 174.368 8.66628C174.496 8.7117 174.646 8.73392 174.817 8.73392C174.988 8.73392 175.137 8.7117 175.266 8.66821C175.393 8.62472 175.501 8.55418 175.59 8.45658C175.678 8.35897 175.751 8.24687 175.808 8.11931C175.865 7.99175 175.91 7.83133 175.942 7.63806C175.974 7.44478 175.996 7.24475 176.008 7.03698C176.019 6.83017 176.025 6.58278 176.025 6.29577C176.025 6.03388 176.015 5.79809 175.995 5.58935C175.974 5.38062 175.936 5.17961 175.882 4.98634C175.827 4.79306 175.756 4.63168 175.666 4.50315C175.576 4.37463 175.459 4.27219 175.314 4.19392C175.169 4.11661 174.999 4.07795 174.804 4.07795C174.616 4.07795 174.451 4.11564 174.311 4.19198C174.17 4.26833 174.056 4.37076 173.968 4.49929C173.88 4.62782 173.808 4.7892 173.754 4.98247C173.698 5.17575 173.661 5.37772 173.64 5.58742C173.618 5.79809 173.608 6.03388 173.608 6.29577Z" fill="#3A3845"/>
<path d="M177.267 8.60649H177.643C177.89 8.18515 178.052 7.71453 178.127 7.19655C178.202 6.67858 178.24 5.96153 178.24 5.04541V3.63354H181.229V8.60649H181.677V10.4455H181.08V9.15732H177.865V10.4455H177.268V8.60649H177.267ZM178.315 8.60649H180.605V4.18824H178.864V5.62233C178.864 6.88055 178.681 7.87494 178.315 8.60649Z" fill="#3A3845"/>
<path d="M181.964 9.15732L183.821 5.94414L182.018 3.63354H182.802L184.854 6.47177V3.63354H185.478V6.47177L187.534 3.63354H188.318L186.515 5.94414L188.372 9.15732H187.644L186.137 6.42732L185.479 7.23231V9.15732H184.855V7.23231L184.197 6.42732L182.693 9.15732H181.964Z" fill="#3A3845"/>
<path d="M189.08 9.15732V3.63354H191.909V4.18728H189.704V5.98182H191.766V6.53555H189.704V8.60649H191.916V9.15732H189.08Z" fill="#3A3845"/>
<path d="M192.395 4.18824V3.63354H195.943V4.18728H194.484V9.15635H193.861V4.18824H192.395Z" fill="#3A3845"/>
<path d="M196.647 9.15732V3.63354H197.271V5.98182H199.43V3.63354H200.053V9.15635H199.43V6.53555H197.271V9.15635L196.647 9.15732Z" fill="#3A3845"/>
<path d="M201.07 6.38951C201.07 6.18754 201.075 6.00103 201.085 5.82998C201.095 5.65893 201.116 5.47339 201.15 5.27238C201.183 5.07138 201.227 4.89067 201.282 4.73122C201.337 4.57177 201.412 4.41425 201.506 4.25963C201.6 4.10501 201.711 3.97552 201.837 3.87211C201.963 3.76871 202.119 3.6856 202.306 3.62279C202.491 3.56094 202.699 3.52905 202.926 3.52905C203.105 3.52905 203.271 3.54838 203.424 3.58703C203.577 3.62569 203.711 3.67787 203.828 3.74455C203.943 3.81027 204.049 3.89337 204.144 3.99194C204.238 4.09051 204.319 4.19488 204.385 4.30408C204.451 4.41425 204.509 4.53794 204.558 4.67613C204.606 4.81529 204.646 4.95058 204.674 5.08491C204.703 5.21827 204.727 5.36322 204.745 5.51881C204.763 5.67439 204.775 5.82032 204.782 5.95657C204.788 6.09283 204.792 6.23682 204.792 6.38951C204.792 6.62917 204.786 6.8437 204.774 7.03311C204.762 7.22252 204.74 7.42159 204.709 7.6284C204.677 7.83617 204.633 8.01688 204.578 8.17343C204.521 8.32998 204.446 8.47977 204.351 8.62472C204.257 8.76968 204.145 8.88854 204.016 8.98228C203.887 9.07602 203.731 9.15043 203.547 9.20551C203.364 9.26059 203.157 9.28765 202.927 9.28765C202.698 9.28765 202.49 9.25963 202.307 9.20551C202.123 9.1514 201.968 9.07602 201.84 8.98228C201.712 8.88854 201.601 8.76968 201.507 8.62472C201.413 8.47977 201.338 8.32901 201.283 8.17343C201.228 8.01784 201.185 7.83617 201.151 7.6284C201.118 7.42159 201.097 7.22252 201.086 7.03311C201.075 6.8437 201.07 6.62917 201.07 6.38951ZM201.721 6.28804C201.721 6.63207 201.73 6.92391 201.748 7.16261C201.765 7.4013 201.799 7.6255 201.849 7.83617C201.899 8.04683 201.968 8.21498 202.056 8.33771C202.144 8.46141 202.259 8.55804 202.404 8.62762C202.548 8.6972 202.722 8.73199 202.926 8.73199C203.097 8.73199 203.246 8.70976 203.373 8.66434C203.501 8.61989 203.61 8.54838 203.699 8.45078C203.789 8.35317 203.862 8.24107 203.92 8.11351C203.977 7.98595 204.021 7.82553 204.054 7.63226C204.086 7.43899 204.108 7.23895 204.121 7.03118C204.134 6.82438 204.14 6.57795 204.14 6.29384C204.14 6.03195 204.13 5.79616 204.109 5.58646C204.09 5.37675 204.051 5.17478 203.995 4.98151C203.938 4.78823 203.865 4.62685 203.774 4.49832C203.684 4.3698 203.566 4.26736 203.42 4.19102C203.275 4.11467 203.105 4.07698 202.911 4.07698C202.723 4.07698 202.558 4.11467 202.417 4.19102C202.277 4.26736 202.163 4.36883 202.075 4.49639C201.987 4.62395 201.916 4.78437 201.862 4.97764C201.809 5.17092 201.771 5.37192 201.751 5.58066C201.731 5.79133 201.721 6.02615 201.721 6.28804Z" fill="#3A3845"/>
<path d="M205.814 9.15732V3.63354H208.643V4.18728H206.438V5.98182H208.501V6.53555H206.438V8.60649H208.65V9.15732H205.814Z" fill="#3A3845"/>
<path d="M211.016 3.63354H211.682L212.999 7.4681L214.204 3.63354H214.855L213.306 8.2412C213.176 8.63354 213.029 8.90703 212.865 9.05875C212.701 9.21143 212.5 9.28778 212.26 9.28778C212.053 9.28778 211.893 9.26362 211.782 9.21627V8.66543C211.871 8.70989 212.01 8.73308 212.199 8.73308C212.313 8.73308 212.406 8.69732 212.478 8.62485C212.549 8.55237 212.615 8.41514 212.677 8.21317L211.016 3.63354Z" fill="#3A3845"/>
<path d="M215.398 5.10146V3.63354H216.022V5.02995C216.022 5.40394 216.094 5.65712 216.235 5.78662C216.377 5.91611 216.653 5.98086 217.062 5.98086C217.45 5.98086 217.761 5.96056 217.993 5.92094V3.63354H218.616V9.15635H217.993V6.46404C217.702 6.5114 217.348 6.53555 216.934 6.53555C216.679 6.53555 216.461 6.51236 216.278 6.46404C216.097 6.41669 215.937 6.33842 215.8 6.23018C215.664 6.12098 215.563 5.97313 215.496 5.78662C215.432 5.59914 215.398 5.37108 215.398 5.10146Z" fill="#3A3845"/>
<path d="M219.8 9.15732V3.63354H221.366C221.899 3.63354 222.317 3.76111 222.617 4.01719C222.919 4.27328 223.069 4.66466 223.069 5.19133C223.069 5.44356 223.037 5.66486 222.975 5.85426C222.913 6.04367 222.829 6.19926 222.722 6.32102C222.616 6.44182 222.484 6.54039 222.326 6.6148C222.168 6.68921 222.002 6.74236 221.828 6.77232C221.654 6.80227 221.461 6.81677 221.247 6.81677H220.424V9.15732H219.8ZM220.425 6.26594H221.037C221.192 6.26594 221.327 6.26111 221.439 6.25144C221.552 6.24178 221.663 6.22342 221.776 6.19733C221.889 6.17123 221.98 6.13354 222.054 6.08329C222.126 6.03304 222.192 5.96926 222.25 5.89002C222.309 5.81174 222.352 5.71414 222.378 5.59818C222.405 5.48221 222.419 5.34692 222.419 5.1923C222.419 4.82025 222.319 4.56029 222.121 4.41147C221.922 4.26265 221.621 4.18824 221.218 4.18824H220.426L220.425 6.26594Z" fill="#3A3845"/>
<path d="M224.087 9.15732V3.63354H226.915V4.18728H224.711V5.98182H226.773V6.53555H224.711V8.60649H226.922V9.15732H224.087Z" fill="#3A3845"/>
<path d="M227.409 9.15732L229.266 5.94414L227.463 3.63354H228.247L230.299 6.47177V3.63354H230.923V6.47177L232.979 3.63354H233.763L231.96 5.94414L233.817 9.15732H233.089L231.582 6.42732L230.924 7.23231V9.15732H230.3V7.23231L229.642 6.42732L228.138 9.15732H227.409Z" fill="#3A3845"/>
<path d="M234.094 8.60649H234.47C234.717 8.18515 234.879 7.71453 234.954 7.19655C235.029 6.67858 235.067 5.96153 235.067 5.04541V3.63354H238.056V8.60649H238.504V10.4455H237.907V9.15732H234.692V10.4455H234.095V8.60649H234.094ZM235.143 8.60649H237.433V4.18824H235.692V5.62233C235.691 6.88055 235.508 7.87494 235.143 8.60649Z" fill="#3A3845"/>
<path d="M239.262 9.15732V3.63354H242.091V4.18728H239.887V5.98182H241.949V6.53555H239.887V8.60649H242.098V9.15732H239.262Z" fill="#3A3845"/>
<path d="M243.056 9.15732V3.63354H243.681V5.98182H245.839V3.63354H246.462V9.15635H245.839V6.53555H243.681V9.15635L243.056 9.15732Z" fill="#3A3845"/>
<path d="M247.643 9.15731V3.63353H248.267V8.14552C248.267 8.29047 248.262 8.49534 248.252 8.75916H248.267C248.285 8.70408 248.305 8.6287 248.329 8.53207C248.351 8.4364 248.376 8.34556 248.401 8.26052C248.426 8.17548 248.458 8.0885 248.497 7.99863L250.253 3.63257H251.156V9.15538H250.532V4.75356C250.532 4.56125 250.537 4.281 250.548 3.91088H250.532C250.466 4.31289 250.393 4.61247 250.314 4.80961L248.549 9.15731H247.643Z" fill="#3A3845"/>
<path d="M252.333 9.15732V3.63354H255.162V4.18728H252.957V5.98182H255.019V6.53555H252.957V8.60649H255.168V9.15732H252.333Z" fill="#3A3845"/>
<path d="M54.2889 18.481V19.6677L53.1342 20.4137L54.2889 21.3965V22.6054L52.5682 21.0573V19.9044L54.2889 18.481ZM56.3799 19.6677L55.2252 20.4137L56.3799 21.3965V22.6054L54.6356 21.0573V19.9044L56.3799 18.481V19.6677Z" fill="#3A3845"/>
<path d="M61.5532 15.1238V16.3665H58.7579V23.2828H57.1756V15.1238H61.5532Z" fill="#3A3845"/>
<path d="M65.0305 14.9768C66.6366 14.9768 67.7102 15.689 67.7102 17.7686V20.7296C67.7102 22.8092 66.6366 23.476 65.0305 23.476C63.4482 23.476 62.3162 22.787 62.3162 20.7296V17.7686C62.3162 15.7122 63.4482 14.9768 65.0305 14.9768ZM63.9331 17.5879V20.9219C63.9331 21.7694 64.2798 22.2333 65.0305 22.2333C65.712 22.2333 66.0933 21.781 66.0933 20.9219V17.6102C66.0933 16.7404 65.712 16.2205 65.0305 16.2205C64.2798 16.2205 63.9331 16.7172 63.9331 17.5879Z" fill="#3A3845"/>
<path d="M72.2602 17.7803V17.5995C72.2602 16.5713 71.9945 16.2205 71.3249 16.2205C70.6552 16.2205 70.3658 16.5713 70.3658 17.5995V20.8205C70.3658 21.8825 70.6433 22.2333 71.313 22.2333C71.9481 22.2333 72.2602 21.8719 72.2602 20.8205V20.3798H73.8426V20.7296C73.8426 22.2101 73.3003 23.476 71.3249 23.476C69.2457 23.476 68.7488 22.1985 68.7488 20.7528V17.7803C68.7488 15.8697 69.6269 14.9778 71.3486 14.9778C72.9655 14.9778 73.8436 15.8707 73.8436 17.3734V17.7803H72.2602Z" fill="#3A3845"/>
<path d="M76.2358 15.1238L77.5178 19.4522L78.7999 15.1238H80.5334L78.2695 21.7241C77.83 23.0123 77.3331 23.4761 76.5597 23.4761C76.1903 23.4761 75.8782 23.4191 75.6006 23.3292V22.1425C75.6935 22.1648 75.8318 22.2334 76.0402 22.2334C76.3523 22.2334 76.5834 22.0411 76.7444 21.5782L74.4568 15.1238H76.2358Z" fill="#3A3845"/>
<path d="M86.4465 15.1238V22.0401H86.9542V24.9218H85.4301V23.2828H81.977V24.9218H80.4519V22.0401H80.9487C81.5029 20.8418 81.7113 19.916 81.7113 17.6663V15.1238H86.4465ZM83.2699 16.3675V18.221C83.2699 20.0967 83.0042 21.0235 82.5192 22.0411H84.8641V16.3675H83.2699Z" fill="#3A3845"/>
<path d="M89.4709 15.1238H91.5965L93.4446 23.2838H91.7348L91.3417 21.1588H89.5509L89.0541 23.2838H87.3562L89.4709 15.1238ZM91.1451 19.9498L90.51 16.152L89.7475 19.9498H91.1451Z" fill="#3A3845"/>
<path d="M95.6856 23.2838H94.1033V15.1238H97.0951C98.4463 15.1238 99.2899 16.1974 99.2899 17.5078C99.2899 18.853 98.4236 19.9605 97.0724 19.9605H95.6856V23.2838ZM95.6856 18.7515H96.4827C97.2798 18.7515 97.672 18.3109 97.672 17.531C97.672 16.7627 97.2798 16.3327 96.4827 16.3327H95.6856V18.7515Z" fill="#3A3845"/>
<path d="M103.843 17.7803V17.5995C103.843 16.5713 103.577 16.2205 102.907 16.2205C102.237 16.2205 101.949 16.5713 101.949 17.5995V20.8205C101.949 21.8825 102.226 22.2333 102.896 22.2333C103.531 22.2333 103.843 21.8719 103.843 20.8205V20.3798H105.426V20.7296C105.426 22.2101 104.883 23.476 102.907 23.476C100.828 23.476 100.331 22.1985 100.331 20.7528V17.7803C100.331 15.8697 101.209 14.9778 102.931 14.9778C104.547 14.9778 105.426 15.8707 105.426 17.3734V17.7803H103.843Z" fill="#3A3845"/>
<path d="M109.701 23.2838H108.119V16.3675H106.155V15.1238H111.666V16.3665H109.702L109.701 23.2838Z" fill="#3A3845"/>
<path d="M112.452 15.1238H115.375C116.841 15.1238 117.43 16.0728 117.43 17.1126C117.43 17.8924 117.003 18.7622 116.31 18.8984C117.13 19.226 117.546 19.802 117.546 20.865C117.546 22.2778 116.921 23.2838 115.639 23.2838H112.451L112.452 15.1238ZM114.034 18.4355H114.866C115.559 18.4355 115.848 18.0287 115.848 17.3281C115.848 16.639 115.605 16.2883 114.89 16.2883H114.034V18.4355ZM114.034 22.1193H115.051C115.639 22.1193 115.929 21.7685 115.929 20.8534C115.929 20.0513 115.639 19.599 115.051 19.599H114.034V22.1193Z" fill="#3A3845"/>
<path d="M122.993 15.1238V16.3665H120.117V18.2654H122.74V19.5082H120.117V22.0401H122.993V23.2828H118.535V15.1238H122.993Z" fill="#3A3845"/>
<path d="M125.571 18.2654H127.661V15.1238H129.244V23.2838H127.661V19.5092H125.571V23.2838H123.988V15.1238H125.571V18.2654Z" fill="#3A3845"/>
<path d="M131.983 18.2654H134.074V15.1238H135.656V23.2838H134.074V19.5092H131.983V23.2838H130.4V15.1238H131.983V18.2654Z" fill="#3A3845"/>
<path d="M138.394 18.2654H139.722C141.016 18.2654 141.848 19.5198 141.848 20.6727C141.848 22.243 141.12 23.2828 139.862 23.2828H136.812V15.1238H138.395L138.394 18.2654ZM138.394 22.1193H139.305C139.895 22.1193 140.23 21.7685 140.23 20.8534C140.23 20.0513 139.895 19.5082 139.305 19.5082H138.394V22.1193ZM144.631 23.2838H143.049V15.1238H144.631V23.2838Z" fill="#3A3845"/>
<path d="M147.259 15.1236V18.186C147.259 19.1582 147.212 20.3787 147.062 21.0562H147.074L149.384 15.1226H151.094V23.2827H149.616V20.1874C149.616 18.9446 149.65 18.0962 149.812 17.3617H149.801L147.491 23.2836H145.781V15.1236H147.259ZM147.547 12.9087C147.547 13.5194 147.871 13.8354 148.379 13.8354C148.887 13.8354 149.211 13.5185 149.211 12.9087H150.03C150.03 13.7794 149.696 14.6037 148.355 14.6037C147.061 14.6037 146.726 13.7784 146.726 12.9087H147.547Z" fill="#3A3845"/>
<path d="M156.606 18.2654H158.697V15.1238H160.279V23.2838H158.697V19.5092H156.606V23.2838H155.023V15.1238H156.606V18.2654Z" fill="#3A3845"/>
<path d="M163.031 15.1238H165.156L167.004 23.2838H165.295L164.901 21.1588H163.111L162.614 23.2838H160.916L163.031 15.1238ZM164.706 19.9498L164.071 16.152L163.308 19.9498H164.706Z" fill="#3A3845"/>
<path d="M168.609 15.1238L169.891 19.4522L171.173 15.1238H172.905L170.642 21.7241C170.202 23.0123 169.705 23.4761 168.932 23.4761C168.562 23.4761 168.25 23.4191 167.973 23.3292V22.1425C168.066 22.1648 168.204 22.2334 168.412 22.2334C168.724 22.2334 168.955 22.0411 169.117 21.5782L166.829 15.1247H168.609V15.1238Z" fill="#3A3845"/>
<path d="M175.159 15.1238V17.3503C175.159 18.1302 175.551 18.5708 176.349 18.5708C176.58 18.5708 176.972 18.537 177.146 18.4916V15.1238H178.728V23.2838H177.146V19.7015C176.695 19.7923 176.326 19.8145 175.805 19.8145C174.454 19.8145 173.576 18.8994 173.576 17.5542V15.1238H175.159Z" fill="#3A3845"/>
<path d="M181.557 18.2654H183.647V15.1238H185.229V23.2838H183.647V19.5092H181.557V23.2838H179.974V15.1238H181.557V18.2654Z" fill="#3A3845"/>
<path d="M187.969 18.2654H189.297C190.591 18.2654 191.423 19.5198 191.423 20.6727C191.423 22.243 190.695 23.2828 189.436 23.2828H186.386V15.1238H187.969V18.2654ZM187.969 22.1193H188.881C189.47 22.1193 189.805 21.7685 189.805 20.8534C189.805 20.0513 189.47 19.5082 188.881 19.5082H187.969V22.1193ZM194.206 23.2838H192.624V15.1238H194.206V23.2838Z" fill="#3A3845"/>
<path d="M196.841 15.1236V18.186C196.841 19.1582 196.794 20.3787 196.644 21.0562H196.656L198.966 15.1226H200.676V23.2827H199.197V20.1874C199.197 18.9446 199.232 18.0962 199.394 17.3617H199.382L197.072 23.2836H195.362V15.1236H196.841ZM197.129 12.9087C197.129 13.5194 197.453 13.8354 197.961 13.8354C198.468 13.8354 198.792 13.5185 198.792 12.9087H199.612C199.612 13.7794 199.277 14.6037 197.937 14.6037C196.643 14.6037 196.308 13.7784 196.308 12.9087H197.129Z" fill="#3A3845"/>
<path d="M206.187 22.0401H208.278V15.1238H209.86V22.0401H210.369V24.9334H208.89V23.2838H204.604V15.1238H206.187V22.0401Z" fill="#3A3845"/>
<path d="M215.728 15.1238V16.3665H212.852V18.2654H215.473V19.5082H212.852V22.0401H215.728V23.2828H211.269V15.1238H215.728Z" fill="#3A3845"/>
<path d="M218.3 18.2654H220.39V15.1238H221.972V23.2838H220.39V19.5092H218.3V23.2838H216.717V15.1238H218.3V18.2654Z" fill="#3A3845"/>
<path d="M226.306 23.2838H224.724V16.3675H222.76V15.1238H228.271V16.3665H226.307L226.306 23.2838Z" fill="#3A3845"/>
<path d="M230.639 23.2838H229.056V15.1238H232.048C233.399 15.1238 234.243 16.1974 234.243 17.5078C234.243 18.853 233.377 19.9605 232.025 19.9605H230.64L230.639 23.2838ZM230.639 18.7515H231.436C232.233 18.7515 232.625 18.3109 232.625 17.531C232.625 16.7627 232.232 16.3327 231.436 16.3327H230.639V18.7515Z" fill="#3A3845"/>
<path d="M243.877 15.1238V22.0401H244.385V24.9218H242.861V23.2828H239.407V24.9218H237.881V22.0401H238.378C238.932 20.8418 239.141 19.916 239.141 17.6663V15.1238H243.877ZM240.7 16.3675V18.221C240.7 20.0967 240.435 21.0235 239.95 22.0411H242.295V16.3675H240.7Z" fill="#3A3845"/>
<path d="M249.771 15.1238V16.3665H246.894V18.2654H249.516V19.5082H246.894V22.0401H249.771V23.2828H245.312V15.1238H249.771Z" fill="#3A3845"/>
<path d="M252.343 23.2838H250.76V15.1238H253.752C255.103 15.1238 255.947 16.1974 255.947 17.5078C255.947 18.853 255.081 19.9605 253.73 19.9605H252.344L252.343 23.2838ZM252.343 18.7515H253.14C253.937 18.7515 254.329 18.3109 254.329 17.531C254.329 16.7627 253.936 16.3327 253.14 16.3327H252.343V18.7515Z" fill="#3A3845"/>
<path d="M259.572 15.1238L260.68 20.4243L261.79 15.1238H264.319V23.2838H262.841V15.893H262.829L261.246 23.2838H260.114L258.532 15.9036H258.521V23.2838H257.043V15.1238H259.572Z" fill="#3A3845"/>
<path d="M267.073 15.1238H269.199L271.047 23.2838H269.337L268.944 21.1588H267.153L266.657 23.2838H264.959L267.073 15.1238ZM268.749 19.9498L268.113 16.152L267.351 19.9498H268.749Z" fill="#3A3845"/>
<path d="M274.452 23.2838H272.87V16.3675H270.906V15.1238H276.416V16.3665H274.453V23.2838H274.452Z" fill="#3A3845"/>
<path d="M279.861 14.9768C281.467 14.9768 282.541 15.689 282.541 17.7686V20.7296C282.541 22.8092 281.467 23.476 279.861 23.476C278.279 23.476 277.147 22.787 277.147 20.7296V17.7686C277.146 15.7122 278.278 14.9768 279.861 14.9768ZM278.763 17.5879V20.9219C278.763 21.7694 279.11 22.2333 279.86 22.2333C280.542 22.2333 280.923 21.781 280.923 20.9219V17.6102C280.923 16.7404 280.542 16.2205 279.86 16.2205C279.11 16.2205 278.763 16.7172 278.763 17.5879Z" fill="#3A3845"/>
<path d="M283.635 15.1238H286.558C288.025 15.1238 288.613 16.0728 288.613 17.1126C288.613 17.8924 288.186 18.7622 287.493 18.8984C288.313 19.226 288.729 19.802 288.729 20.865C288.729 22.2778 288.106 23.2838 286.823 23.2838H283.634V15.1238H283.635ZM285.218 18.4355H286.049C286.743 18.4355 287.031 18.0287 287.031 17.3281C287.031 16.639 286.788 16.2883 286.072 16.2883H285.218V18.4355ZM285.218 22.1193H286.234C286.823 22.1193 287.112 21.7685 287.112 20.8534C287.112 20.0513 286.824 19.599 286.234 19.599H285.218V22.1193Z" fill="#3A3845"/>
<path d="M294.184 15.1238V16.3665H291.307V18.2654H293.929V19.5082H291.307V22.0401H294.184V23.2828H289.725V15.1238H294.184Z" fill="#3A3845"/>
<path d="M296.756 18.2654H298.846V15.1238H300.428V23.2838H298.846V19.5092H296.756V23.2838H295.173V15.1238H296.756V18.2654Z" fill="#3A3845"/>
<path d="M306.044 15.1238V16.3665H303.168V18.2654H305.789V19.5082H303.168V22.0401H306.044V23.2828H301.585V15.1238H306.044Z" fill="#3A3845"/>
<path d="M308.623 23.2838H307.041V15.1238H310.032C311.384 15.1238 312.227 16.1974 312.227 17.5078C312.227 18.853 311.361 19.9605 310.01 19.9605H308.624V23.2838H308.623ZM308.623 18.7515H309.42C310.217 18.7515 310.609 18.3109 310.609 17.531C310.609 16.7627 310.216 16.3327 309.42 16.3327H308.623V18.7515Z" fill="#3A3845"/>
<path d="M315.976 14.9768C317.582 14.9768 318.655 15.689 318.655 17.7686V20.7296C318.655 22.8092 317.582 23.476 315.976 23.476C314.393 23.476 313.261 22.787 313.261 20.7296V17.7686C313.261 15.7122 314.393 14.9768 315.976 14.9768ZM314.878 17.5879V20.9219C314.878 21.7694 315.225 22.2333 315.976 22.2333C316.657 22.2333 317.038 21.781 317.038 20.9219V17.6102C317.038 16.7404 316.657 16.2205 315.976 16.2205C315.225 16.2205 314.878 16.7172 314.878 17.5879Z" fill="#3A3845"/>
<path d="M325.357 15.1238V23.2838H323.774V16.3675H322.088V19.4976C322.088 22.2208 321.626 23.4307 320.297 23.4307C319.928 23.4307 319.64 23.4085 319.338 23.3292V22.1879C319.442 22.2218 319.662 22.244 319.847 22.244C320.332 22.244 320.529 21.9956 320.529 19.0347V15.1238H325.357Z" fill="#3A3845"/>
<path d="M329.237 14.9768C330.843 14.9768 331.917 15.689 331.917 17.7686V20.7296C331.917 22.8092 330.843 23.476 329.237 23.476C327.655 23.476 326.523 22.787 326.523 20.7296V17.7686C326.523 15.7122 327.655 14.9768 329.237 14.9768ZM328.14 17.5879V20.9219C328.14 21.7694 328.487 22.2333 329.237 22.2333C329.919 22.2333 330.3 21.781 330.3 20.9219V17.6102C330.3 16.7404 329.919 16.2205 329.237 16.2205C328.487 16.2205 328.14 16.7172 328.14 17.5879Z" fill="#3A3845"/>
<path d="M337.395 15.1238V16.3665H334.599V23.2828H333.017V15.1238H337.395Z" fill="#3A3845"/>
<path d="M339.691 15.1238V18.1756C339.691 19.1477 339.645 20.3789 339.494 21.0573H339.506L341.817 15.1238H343.526V23.2838H342.048V20.1982C342.048 18.9554 342.082 18.0963 342.244 17.3619H342.232L339.922 23.2838H338.212V15.1238H339.691Z" fill="#3A3845"/>
<path d="M346.165 15.1238V18.1756C346.165 19.1477 346.118 20.3789 345.968 21.0573H345.98L348.29 15.1238H350V23.2838H348.521V20.1982C348.521 18.9554 348.556 18.0963 348.718 17.3619H348.706L346.396 23.2838H344.686V15.1238H346.165Z" fill="#3A3845"/>
<path d="M54.3555 29.251V32.3028C54.3555 33.2749 54.3091 34.5061 54.1589 35.1845H54.1698L56.4801 29.251H58.1899V37.411H56.7112V34.3254C56.7112 33.0826 56.7458 32.2235 56.9078 31.4891H56.8959L54.5856 37.411H52.8759V29.251H54.3555Z" fill="#3A3845"/>
<path d="M63.7003 32.788L65.6185 29.2511H67.4093L65.2955 32.788L67.4784 37.4102H65.7114L64.3246 34.1554L63.7003 34.9575V37.4102H62.118V29.2501H63.7003V32.788Z" fill="#3A3845"/>
<path d="M70.7932 29.1042C72.3983 29.1042 73.4729 29.8165 73.4729 31.8961V34.857C73.4729 36.9367 72.3983 37.6035 70.7932 37.6035C69.2109 37.6035 68.0789 36.9145 68.0789 34.857V31.8961C68.0779 29.8387 69.2109 29.1042 70.7932 29.1042ZM69.6958 31.7144V35.0484C69.6958 35.8959 70.0425 36.3598 70.7932 36.3598C71.4747 36.3598 71.856 35.9075 71.856 35.0484V31.7366C71.856 30.8669 71.4747 30.347 70.7932 30.347C70.0425 30.347 69.6958 30.8447 69.6958 31.7144Z" fill="#3A3845"/>
<path d="M78.0239 31.9067V31.726C78.0239 30.6978 77.7582 30.347 77.0875 30.347C76.4169 30.347 76.1294 30.6978 76.1294 31.726V34.9469C76.1294 36.009 76.407 36.3598 77.0767 36.3598C77.7128 36.3598 78.0239 35.9983 78.0239 34.9469V34.5063H79.6063V34.8561C79.6063 36.3366 79.063 37.6025 77.0875 37.6025C75.0084 37.6025 74.5115 36.325 74.5115 34.8793V31.9067C74.5115 29.9962 75.3896 29.1042 77.1103 29.1042C78.7272 29.1042 79.6053 29.9972 79.6053 31.4999V31.9067H78.0239Z" fill="#3A3845"/>
<path d="M83.2344 29.251L84.3427 34.5515L85.4519 29.251H87.9815V37.411H86.5028V30.0202H86.492L84.9096 37.411H83.7777L82.1953 30.0308H82.1835V37.411H80.7048V29.251H83.2344Z" fill="#3A3845"/>
<path d="M93.599 29.2511V30.4938H90.7227V32.3928H93.3442V33.6355H90.7227V36.1674H93.599V37.4102H89.1404V29.2501L93.599 29.2511Z" fill="#3A3845"/>
<path d="M97.7655 37.41H96.1831V30.4937H94.2195V29.251H99.7301V30.4937H97.7655V37.41Z" fill="#3A3845"/>
<path d="M103.175 29.1042C104.78 29.1042 105.855 29.8165 105.855 31.8961V34.857C105.855 36.9367 104.78 37.6035 103.175 37.6035C101.593 37.6035 100.461 36.9145 100.461 34.857V31.8961C100.461 29.8387 101.593 29.1042 103.175 29.1042ZM102.078 31.7144V35.0484C102.078 35.8959 102.424 36.3598 103.175 36.3598C103.857 36.3598 104.238 35.9075 104.238 35.0484V31.7366C104.238 30.8669 103.857 30.347 103.175 30.347C102.424 30.347 102.078 30.8447 102.078 31.7144Z" fill="#3A3845"/>
<path d="M112.555 29.251V37.411H110.973V30.4947H109.287V33.6248C109.287 36.348 108.824 37.5579 107.496 37.5579C107.127 37.5579 106.838 37.5357 106.538 37.4564V36.3151C106.642 36.349 106.862 36.3712 107.046 36.3712C107.531 36.3712 107.727 36.1228 107.727 33.1619V29.2519H112.555V29.251Z" fill="#3A3845"/>
<path d="M116.437 29.1042C118.043 29.1042 119.116 29.8165 119.116 31.8961V34.857C119.116 36.9367 118.043 37.6035 116.437 37.6035C114.854 37.6035 113.722 36.9145 113.722 34.857V31.8961C113.722 29.8387 114.854 29.1042 116.437 29.1042ZM115.339 31.7144V35.0484C115.339 35.8959 115.686 36.3598 116.437 36.3598C117.118 36.3598 117.499 35.9075 117.499 35.0484V31.7366C117.499 30.8669 117.118 30.347 116.437 30.347C115.686 30.347 115.339 30.8447 115.339 31.7144Z" fill="#3A3845"/>
<path d="M124.586 29.2511V30.4938H121.79V37.4102H120.208V29.2501L124.586 29.2511Z" fill="#3A3845"/>
<path d="M126.889 29.251V32.3028C126.889 33.2749 126.843 34.5061 126.692 35.1845H126.704L129.014 29.251H130.724V37.411H129.245V34.3254C129.245 33.0826 129.28 32.2235 129.442 31.4891H129.43L127.12 37.411H125.41V29.251H126.889Z" fill="#3A3845"/>
<path d="M133.355 29.251V32.3028C133.355 33.2749 133.309 34.5061 133.159 35.1845H133.171L135.481 29.251H137.191V37.411H135.712V34.3254C135.712 33.0826 135.747 32.2235 135.909 31.4891H135.897L133.587 37.411H131.877V29.251H133.355Z" fill="#3A3845"/>
<path d="M138.091 32.4941L139.835 33.9746V35.0821L138.091 36.551V35.3643L139.142 34.4713L138.091 33.7031V32.4941ZM141.948 33.9746V35.0821L140.203 36.551V35.3643L141.254 34.4713L140.203 33.7031V32.4941L141.948 33.9746Z" fill="#3A3845"/>
<path d="M148.003 29.251L149.111 34.5515L150.221 29.251H152.75V37.411H151.272V30.0202H151.261L149.678 37.411H148.546L146.964 30.0308H146.952V37.411H145.474V29.251H148.003Z" fill="#3A3845"/>
<path d="M155.38 29.251V32.3028C155.38 33.2749 155.333 34.5061 155.183 35.1845H155.195L157.505 29.251H159.215V37.411H157.737V34.3254C157.737 33.0826 157.771 32.2235 157.933 31.4891H157.922L155.612 37.411H153.902V29.251H155.38Z" fill="#3A3845"/>
<path d="M161.958 32.3926H164.049V29.251H165.633V37.411H164.049V33.6364H161.958V37.411H160.376V29.251H161.958V32.3926Z" fill="#3A3845"/>
<path d="M166.669 31.6013C166.669 30.1779 167.582 29.1033 169.152 29.1033C170.273 29.1033 171.647 29.6232 171.647 31.2728C171.647 32.1203 171.128 32.8547 170.365 33.047C171.197 33.2509 171.763 33.9177 171.763 35.1489C171.763 36.7879 170.85 37.6015 169.199 37.6015C167.836 37.6015 166.542 36.9908 166.542 35.2397H168.079C168.079 35.8051 168.31 36.3588 169.107 36.3588C169.869 36.3588 170.146 35.8505 170.146 35.003C170.146 34.0424 169.649 33.6916 168.991 33.6916H168.657V32.5281H168.991C169.58 32.5281 170.03 32.2111 170.03 31.4883C170.03 30.9461 169.823 30.347 169.152 30.347C168.529 30.347 168.205 30.8669 168.205 31.6013H166.669Z" fill="#3A3845"/>
<path d="M178.621 29.251V36.1673H179.129V39.049H177.605V37.41H174.151V39.049H172.626V36.1673H173.123C173.677 34.969 173.885 34.0432 173.885 31.7935V29.251H178.621ZM175.445 30.4937V32.3472C175.445 34.223 175.179 35.1497 174.694 36.1673H177.039V30.4937H175.445Z" fill="#3A3845"/>
<path d="M181.639 37.4102H180.056V29.2501H183.048C184.4 29.2501 185.243 30.3238 185.243 31.6342C185.243 32.9793 184.377 34.0868 183.026 34.0868H181.64V37.4102H181.639ZM181.639 32.8788H182.436C183.233 32.8788 183.625 32.4382 183.625 31.6583C183.625 30.8901 183.232 30.46 182.436 30.46H181.639V32.8788Z" fill="#3A3845"/>
<path d="M187.414 29.251H189.54L191.388 37.411H189.678L189.285 35.286H187.494L186.997 37.411H185.3L187.414 29.251ZM189.089 34.077L188.454 30.2792L187.692 34.077H189.089Z" fill="#3A3845"/>
<path d="M192.048 29.251H194.97C196.437 29.251 197.026 30.2 197.026 31.2398C197.026 32.0196 196.598 32.8894 195.906 33.0256C196.726 33.3532 197.141 33.9292 197.141 34.9922C197.141 36.405 196.518 37.411 195.235 37.411H192.047V29.251H192.048ZM193.63 32.5618H194.462C195.155 32.5618 195.443 32.1549 195.443 31.4543C195.443 30.7653 195.2 30.4145 194.484 30.4145H193.63V32.5618ZM193.63 36.2465H194.646C195.235 36.2465 195.524 35.8957 195.524 34.9806C195.524 34.1785 195.236 33.7262 194.646 33.7262H193.63V36.2465Z" fill="#3A3845"/>
<path d="M199.726 29.251H201.851L203.699 37.411H201.99L201.597 35.286H199.806L199.309 37.411H197.611L199.726 29.251ZM201.401 34.077L200.766 30.2792L200.003 34.077H201.401Z" fill="#3A3845"/>
<path d="M208.716 37.4102H207.134V29.2501H210.125C211.477 29.2501 212.32 30.3238 212.32 31.6342C212.32 32.9793 211.454 34.0868 210.103 34.0868H208.717V37.4102H208.716ZM208.716 32.8788H209.513C210.31 32.8788 210.702 32.4382 210.702 31.6583C210.702 30.8901 210.309 30.46 209.513 30.46H208.716V32.8788Z" fill="#3A3845"/>
<path d="M216.069 29.1042C217.675 29.1042 218.748 29.8165 218.748 31.8961V34.857C218.748 36.9367 217.675 37.6035 216.069 37.6035C214.486 37.6035 213.354 36.9145 213.354 34.857V31.8961C213.354 29.8387 214.486 29.1042 216.069 29.1042ZM214.971 31.7144V35.0484C214.971 35.8959 215.318 36.3598 216.069 36.3598C216.75 36.3598 217.131 35.9075 217.131 35.0484V31.7366C217.131 30.8669 216.75 30.347 216.069 30.347C215.318 30.347 214.971 30.8447 214.971 31.7144Z" fill="#3A3845"/>
<path d="M223.305 31.9067V31.726C223.305 30.6978 223.039 30.347 222.37 30.347C221.7 30.347 221.411 30.6978 221.411 31.726V34.9469C221.411 36.009 221.688 36.3598 222.358 36.3598C222.993 36.3598 223.305 35.9983 223.305 34.9469V34.5063H224.888V34.8561C224.888 36.3366 224.345 37.6025 222.37 37.6025C220.29 37.6025 219.794 36.325 219.794 34.8793V31.9067C219.794 29.9962 220.672 29.1042 222.392 29.1042C224.009 29.1042 224.887 29.9972 224.887 31.4999V31.9067H223.305Z" fill="#3A3845"/>
<path d="M229.437 31.9067V31.726C229.437 30.6978 229.171 30.347 228.501 30.347C227.832 30.347 227.542 30.6978 227.542 31.726V34.9469C227.542 36.009 227.82 36.3598 228.49 36.3598C229.125 36.3598 229.437 35.9983 229.437 34.9469V34.5063H231.02V34.8561C231.02 36.3366 230.477 37.6025 228.501 37.6025C226.422 37.6025 225.925 36.325 225.925 34.8793V31.9067C225.925 29.9962 226.804 29.1042 228.524 29.1042C230.141 29.1042 231.019 29.9972 231.019 31.4999V31.9067H229.437Z" fill="#3A3845"/>
<path d="M233.597 29.251V32.3028C233.597 33.2749 233.551 34.5061 233.401 35.1845H233.413L235.723 29.251H237.433V37.411H235.954V34.3254C235.954 33.0826 235.989 32.2235 236.151 31.4891H236.139L233.829 37.411H232.119V29.251H233.597Z" fill="#3A3845"/>
<path d="M240.064 29.251V32.3028C240.064 33.2749 240.018 34.5061 239.868 35.1845H239.88L242.19 29.251H243.9V37.411H242.421V34.3254C242.421 33.0826 242.456 32.2235 242.618 31.4891H242.606L240.295 37.411H238.586V29.251H240.064Z" fill="#3A3845"/>
<path d="M52.7323 45.9452C52.7323 45.7422 52.7372 45.5557 52.7471 45.3847C52.757 45.2136 52.7787 45.0281 52.8123 44.8271C52.8449 44.6261 52.8893 44.4454 52.9447 44.2859C52.999 44.1265 53.0741 43.9689 53.1689 43.8143C53.2637 43.6597 53.3733 43.5302 53.4998 43.4268C53.6262 43.3234 53.7823 43.2403 53.9689 43.1775C54.1546 43.1156 54.3611 43.0837 54.5882 43.0837C54.767 43.0837 54.933 43.1031 55.0861 43.1417C55.2392 43.1804 55.3735 43.2326 55.4901 43.2992C55.6056 43.365 55.7113 43.4481 55.8061 43.5466C55.9 43.6452 55.981 43.7496 56.0471 43.8588C56.1133 43.9689 56.1706 44.0926 56.22 44.2308C56.2684 44.37 56.3069 44.5053 56.3365 44.6396C56.3652 44.773 56.3889 44.9179 56.4067 45.0735C56.4244 45.23 56.4373 45.375 56.4432 45.5113C56.4491 45.6475 56.4521 45.7915 56.4521 45.9442C56.4521 46.1839 56.4462 46.3984 56.4343 46.5878C56.4235 46.7772 56.4017 46.9753 56.3691 47.1831C56.3375 47.3909 56.2931 47.5725 56.2378 47.7281C56.1815 47.8847 56.1064 48.0345 56.0116 48.1794C55.9168 48.3244 55.8061 48.4432 55.6767 48.537C55.5473 48.6307 55.3913 48.7051 55.2076 48.7602C55.0238 48.8153 54.8164 48.8423 54.5873 48.8423C54.3581 48.8423 54.1517 48.8153 53.968 48.7602C53.7842 48.7051 53.6282 48.6307 53.5008 48.537C53.3733 48.4432 53.2627 48.3244 53.1679 48.1794C53.0731 48.0345 52.999 47.8837 52.9437 47.7281C52.8894 47.5725 52.8449 47.3909 52.8113 47.1831C52.7787 46.9753 52.757 46.7772 52.7461 46.5878C52.7382 46.3994 52.7323 46.1848 52.7323 45.9452ZM53.3832 45.8437C53.3832 46.1877 53.3921 46.4796 53.4099 46.7183C53.4277 46.957 53.4612 47.1812 53.5116 47.3918C53.562 47.6035 53.6302 47.7706 53.719 47.8934C53.807 48.0171 53.9225 48.1137 54.0667 48.1833C54.2109 48.2538 54.3848 48.2876 54.5892 48.2876C54.7601 48.2876 54.9093 48.2654 55.0377 48.221C55.1651 48.1755 55.2737 48.105 55.3636 48.0074C55.4525 47.9098 55.5266 47.7977 55.5839 47.6701C55.6412 47.5426 55.6856 47.3822 55.7172 47.1889C55.7498 46.9956 55.7716 46.7956 55.7844 46.5878C55.7972 46.38 55.8042 46.1346 55.8042 45.8495C55.8042 45.5876 55.7933 45.3508 55.7735 45.1411C55.7528 44.9314 55.7143 44.7304 55.659 44.5362C55.6027 44.3429 55.5296 44.1815 55.4387 44.053C55.3488 43.9245 55.2303 43.822 55.0851 43.7457C54.9399 43.6694 54.77 43.6317 54.5754 43.6317C54.3868 43.6317 54.2218 43.6703 54.0815 43.7457C53.9413 43.822 53.8277 43.9235 53.7388 44.0511C53.6509 44.1786 53.5798 44.3391 53.5264 44.5323C53.4721 44.7256 53.4356 44.9266 53.4148 45.1353C53.3931 45.346 53.3832 45.5818 53.3832 45.8437Z" fill="#3A3845"/>
<path d="M57.3192 45.8814C57.3192 45.6871 57.3251 45.5035 57.3359 45.3325C57.3478 45.1614 57.3695 44.9788 57.4031 44.7836C57.4357 44.5893 57.4792 44.4135 57.5335 44.2559C57.5868 44.0984 57.6599 43.9448 57.7518 43.795C57.8436 43.6452 57.9503 43.5196 58.0708 43.4191C58.1923 43.3176 58.3405 43.2364 58.5143 43.1755C58.6891 43.1147 58.8837 43.0837 59.0981 43.0837C59.4418 43.0837 59.7381 43.163 59.9841 43.3215C60.231 43.48 60.4117 43.6897 60.5283 43.9506C60.6439 44.2115 60.7021 44.5101 60.7021 44.8474H60.0789C60.0789 44.0385 59.7401 43.6346 59.0645 43.6346C58.9469 43.6346 58.8393 43.6539 58.7415 43.6906C58.6427 43.7283 58.5578 43.7747 58.4867 43.8298C58.4146 43.8849 58.3513 43.9593 58.295 44.052C58.2387 44.1458 58.1933 44.2357 58.1577 44.3217C58.1222 44.4077 58.0925 44.513 58.0679 44.6386C58.0432 44.7633 58.0244 44.8706 58.0125 44.9604C57.9997 45.0503 57.9898 45.1614 57.9839 45.2938C57.977 45.4262 57.974 45.5267 57.973 45.5953C57.9711 45.6639 57.9711 45.7548 57.9711 45.8669C57.9711 46.0563 57.973 46.2196 57.977 46.3568C57.9799 46.4941 57.9908 46.6525 58.0076 46.8323C58.0234 47.012 58.0471 47.1657 58.0758 47.2932C58.1054 47.4198 58.1479 47.5513 58.2022 47.6846C58.2565 47.818 58.3227 47.9262 58.3968 48.0084C58.4718 48.0905 58.5667 48.1582 58.6803 48.2103C58.7938 48.2625 58.9213 48.2886 59.0645 48.2886C59.2225 48.2886 59.3598 48.2625 59.4764 48.2103C59.5919 48.1582 59.6848 48.0895 59.7549 48.0045C59.825 47.9195 59.8833 47.8064 59.9297 47.6643C59.9762 47.5223 60.0088 47.3802 60.0295 47.2391C60.0492 47.098 60.067 46.9251 60.0799 46.7202H60.7031C60.6854 47.0594 60.6488 47.3512 60.5915 47.5948C60.5352 47.8383 60.4493 48.0576 60.3337 48.2538C60.2172 48.45 60.0581 48.5969 59.8547 48.6955C59.6512 48.794 59.4052 48.8433 59.1139 48.8433C58.8847 48.8433 58.6763 48.8105 58.4916 48.7447C58.3059 48.6781 58.1528 48.593 58.0303 48.4877C57.9078 48.3823 57.8012 48.249 57.7113 48.0857C57.6204 47.9224 57.5503 47.76 57.5009 47.5986C57.4505 47.4372 57.412 47.2498 57.3843 47.0352C57.3557 46.8207 57.3379 46.6284 57.33 46.4583C57.3231 46.2882 57.3192 46.0959 57.3192 45.8814Z" fill="#3A3845"/>
<path d="M61.6942 48.7118V43.189H62.3184V45.5372H64.4766V43.189H65.0999V48.7118H64.4766V46.091H62.3184V48.7118H61.6942Z" fill="#3A3845"/>
<path d="M66.117 45.9452C66.117 45.7422 66.1219 45.5557 66.1318 45.3847C66.1427 45.2136 66.1644 45.0281 66.197 44.8271C66.2296 44.6261 66.2741 44.4454 66.3294 44.2859C66.3837 44.1265 66.4588 43.9689 66.5536 43.8143C66.6474 43.6597 66.758 43.5302 66.8845 43.4268C67.0109 43.3234 67.167 43.2403 67.3536 43.1775C67.5393 43.1156 67.7468 43.0837 67.9739 43.0837C68.1527 43.0837 68.3187 43.1031 68.4718 43.1417C68.6249 43.1804 68.7592 43.2326 68.8757 43.2992C68.9923 43.365 69.097 43.4481 69.1918 43.5466C69.2857 43.6452 69.3666 43.7496 69.4328 43.8588C69.499 43.9689 69.5563 44.0926 69.6047 44.2308C69.6531 44.37 69.6926 44.5053 69.7212 44.6396C69.7509 44.773 69.7736 44.9179 69.7914 45.0735C69.8091 45.23 69.822 45.375 69.8279 45.5113C69.8338 45.6475 69.8368 45.7915 69.8368 45.9442C69.8368 46.1839 69.8309 46.3984 69.82 46.5878C69.8082 46.7772 69.7874 46.9753 69.7548 47.1831C69.7232 47.3909 69.6788 47.5725 69.6225 47.7281C69.5662 47.8847 69.4911 48.0345 69.3973 48.1794C69.3034 48.3244 69.1908 48.4432 69.0624 48.537C68.933 48.6307 68.777 48.7051 68.5932 48.7602C68.4095 48.8153 68.2031 48.8423 67.973 48.8423C67.7428 48.8423 67.5364 48.8153 67.3527 48.7602C67.1689 48.7051 67.0129 48.6307 66.8855 48.537C66.758 48.4432 66.6474 48.3244 66.5526 48.1794C66.4578 48.0345 66.3837 47.8837 66.3284 47.7281C66.2741 47.5725 66.2296 47.3909 66.196 47.1831C66.1624 46.9753 66.1417 46.7772 66.1308 46.5878C66.1219 46.3994 66.117 46.1848 66.117 45.9452ZM66.7679 45.8437C66.7679 46.1877 66.7768 46.4796 66.7946 46.7183C66.8124 46.957 66.8459 47.1812 66.8963 47.3918C66.9457 47.6035 67.0148 47.7706 67.1028 47.8934C67.1907 48.0171 67.3072 48.1137 67.4504 48.1833C67.5947 48.2538 67.7685 48.2876 67.973 48.2876C68.1438 48.2876 68.293 48.2654 68.4214 48.221C68.5488 48.1755 68.6575 48.105 68.7463 48.0074C68.8352 47.9098 68.9093 47.7977 68.9666 47.6701C69.0239 47.5426 69.0683 47.3822 69.1009 47.1889C69.1326 46.9956 69.1553 46.7956 69.1681 46.5878C69.181 46.38 69.1879 46.1346 69.1879 45.8495C69.1879 45.5876 69.177 45.3508 69.1572 45.1411C69.1365 44.9314 69.098 44.7304 69.0417 44.5362C68.9854 44.3429 68.9123 44.1815 68.8214 44.053C68.7315 43.9245 68.613 43.822 68.4678 43.7457C68.3216 43.6694 68.1527 43.6317 67.9581 43.6317C67.7695 43.6317 67.6045 43.6703 67.4643 43.7457C67.324 43.822 67.2104 43.9235 67.1215 44.0511C67.0336 44.1786 66.9625 44.3391 66.9092 44.5323C66.8558 44.7256 66.8183 44.9266 66.7985 45.1353C66.7778 45.346 66.7679 45.5818 66.7679 45.8437Z" fill="#3A3845"/>
<path d="M70.8611 48.7118V43.189H72.3427C72.8554 43.189 73.2416 43.3117 73.5023 43.5581C73.7621 43.8045 73.8925 44.1418 73.8925 44.5709C73.8925 44.8801 73.8214 45.142 73.6782 45.3556C73.5349 45.5691 73.3325 45.7093 73.0697 45.7769V45.7914C73.3453 45.8262 73.5774 45.9653 73.7671 46.2089C73.9557 46.4524 74.0496 46.7597 74.0496 47.1318C74.0496 47.643 73.9093 48.0343 73.6288 48.3059C73.3473 48.5774 72.9443 48.7127 72.4198 48.7127L70.8611 48.7118ZM71.4854 45.5363H72.2618C72.5907 45.5363 72.8366 45.4667 72.9986 45.3266C73.1606 45.1865 73.2416 44.9468 73.2416 44.6076C73.2416 44.3032 73.1636 44.0829 73.0075 43.9466C72.8524 43.8103 72.6252 43.7427 72.3269 43.7427H71.4854V45.5363ZM71.4854 48.1619H72.4188C72.7556 48.1619 73.0026 48.0788 73.1606 47.9126C73.3186 47.7464 73.3986 47.4835 73.3986 47.124C73.3986 46.435 73.0539 46.091 72.3645 46.091H71.4844L71.4854 48.1619Z" fill="#3A3845"/>
<path d="M74.5662 48.7118L76.1733 43.189H77.004L78.5853 48.7118H77.8969L77.4484 47.124H75.6685L75.2557 48.7118H74.5662ZM75.8177 46.5742H77.3101L76.5792 43.6345H76.5644L75.8177 46.5742Z" fill="#3A3845"/>
<path d="M79.2898 48.7118V43.189H79.9131V45.5372H82.0713V43.189H82.6945V48.7118H82.0713V46.091H79.9131V48.7118H79.2898Z" fill="#3A3845"/>
<path d="M85.7566 48.7118V43.189H87.2382C87.7508 43.189 88.137 43.3117 88.3978 43.5581C88.6576 43.8045 88.7879 44.1418 88.7879 44.5709C88.7879 44.8801 88.7168 45.142 88.5736 45.3556C88.4304 45.5691 88.2279 45.7093 87.9652 45.7769V45.7914C88.2407 45.8262 88.4729 45.9653 88.6625 46.2089C88.8512 46.4524 88.945 46.7597 88.945 47.1318C88.945 47.643 88.8047 48.0343 88.5242 48.3059C88.2427 48.5774 87.8397 48.7127 87.3152 48.7127L85.7566 48.7118ZM86.3808 45.5363H87.1572C87.4861 45.5363 87.7321 45.4667 87.894 45.3266C88.056 45.1865 88.137 44.9468 88.137 44.6076C88.137 44.3032 88.059 44.0829 87.9029 43.9466C87.7479 43.8103 87.5207 43.7427 87.2224 43.7427H86.3808V45.5363ZM86.3808 48.1619H87.3143C87.6511 48.1619 87.898 48.0788 88.056 47.9126C88.2141 47.7464 88.2941 47.4835 88.2941 47.124C88.2941 46.435 87.9494 46.091 87.2599 46.091H86.3798V48.1619H86.3808Z" fill="#3A3845"/>
<path d="M91.7722 44.6868V44.1959C91.9915 44.1959 92.1722 44.1833 92.3135 44.1582C92.4557 44.1331 92.5861 44.0857 92.7056 44.0142C92.8251 43.9437 92.918 43.8403 92.9832 43.705C93.0484 43.5707 93.0918 43.3977 93.1155 43.188H93.6015V48.7108H92.9782V44.6859L91.7722 44.6868Z" fill="#3A3845"/>
<path d="M95.3064 45.1246C95.3064 44.5428 95.4476 44.0751 95.7291 43.7205C96.0107 43.3668 96.3682 43.189 96.8028 43.189C97.0142 43.189 97.2038 43.218 97.3727 43.275C97.5416 43.333 97.6829 43.4064 97.7955 43.4953C97.9091 43.5852 98.0059 43.7011 98.0869 43.8422C98.1679 43.9833 98.2311 44.1225 98.2765 44.2597C98.322 44.3969 98.3575 44.5593 98.3832 44.7468C98.4089 44.9333 98.4247 45.0995 98.4316 45.2444C98.4385 45.3894 98.4415 45.5556 98.4415 45.7421C98.4415 45.9663 98.4395 46.1461 98.4375 46.2813C98.4355 46.4157 98.4227 46.6051 98.4 46.8486C98.3783 47.0921 98.3476 47.2912 98.3091 47.4458C98.2706 47.6004 98.2103 47.7754 98.1293 47.9677C98.0483 48.1609 97.9506 48.3136 97.836 48.4248C97.7214 48.5359 97.5752 48.6306 97.3964 48.7089C97.2177 48.7881 97.0142 48.8268 96.788 48.8268C96.3781 48.8268 96.0541 48.7069 95.8171 48.4673C95.579 48.2276 95.4605 47.9068 95.4605 47.5048H96.0837C96.0837 47.7589 96.143 47.9512 96.2635 48.0798C96.384 48.2083 96.5737 48.2721 96.8344 48.2721C96.9312 48.2721 97.0211 48.2547 97.1041 48.218C97.187 48.1812 97.2591 48.1262 97.3204 48.0488C97.3816 47.9725 97.436 47.8942 97.4834 47.813C97.5308 47.7319 97.5713 47.6294 97.6058 47.5038C97.6404 47.3791 97.6691 47.267 97.6908 47.1685C97.7125 47.0699 97.7323 46.9481 97.75 46.8032C97.7678 46.6582 97.7817 46.5432 97.7896 46.4572C97.7984 46.3712 97.8083 46.2601 97.8192 46.1258H97.8024C97.6977 46.3529 97.5515 46.5239 97.3648 46.637C97.1782 46.75 96.9786 46.8071 96.7663 46.8071C96.5213 46.8071 96.304 46.7616 96.1144 46.6698C95.9237 46.579 95.7716 46.4543 95.657 46.2978C95.5425 46.1403 95.4555 45.9624 95.3973 45.7643C95.335 45.5682 95.3064 45.3546 95.3064 45.1246ZM95.9563 45.0086C95.9563 45.1362 95.9632 45.2541 95.9771 45.3623C95.9919 45.4715 96.0176 45.5827 96.0561 45.6957C96.0936 45.8088 96.145 45.9054 96.2092 45.9856C96.2724 46.0658 96.3573 46.1316 96.464 46.1828C96.5697 46.234 96.6932 46.2601 96.8334 46.2601C97.0013 46.2601 97.1475 46.2272 97.272 46.1625C97.3955 46.0977 97.4913 46.0088 97.5584 45.8967C97.6266 45.7846 97.675 45.6629 97.7056 45.5314C97.7362 45.4 97.752 45.2589 97.752 45.1062C97.752 44.942 97.7382 44.7854 97.7115 44.6395C97.6849 44.4936 97.6394 44.3486 97.5742 44.2075C97.509 44.0645 97.4132 43.9524 97.2858 43.8683C97.1584 43.7852 97.0053 43.7427 96.8265 43.7427C96.6586 43.7427 96.5144 43.7804 96.3959 43.8567C96.2773 43.9331 96.1875 44.0365 96.1262 44.1679C96.065 44.2984 96.0215 44.4336 95.9968 44.5699C95.9692 44.7071 95.9563 44.854 95.9563 45.0086Z" fill="#3A3845"/>
<path d="M99.0798 48.7118C99.0798 48.4499 99.0956 48.2305 99.1282 48.0527C99.1598 47.8749 99.227 47.6903 99.3297 47.4961C99.4315 47.3028 99.5737 47.1114 99.7564 46.923C99.9382 46.7346 100.184 46.5152 100.492 46.2659C100.77 46.0417 100.992 45.8049 101.16 45.5566C101.328 45.3082 101.412 45.028 101.412 44.7158C101.412 44.4085 101.349 44.1698 101.221 43.9988C101.094 43.8277 100.878 43.7427 100.576 43.7427C100.434 43.7427 100.312 43.7659 100.208 43.8113C100.105 43.8577 100.024 43.9176 99.9648 43.991C99.9056 44.0645 99.8601 44.1621 99.8276 44.2829C99.795 44.4046 99.7732 44.5235 99.7633 44.6404C99.7525 44.7574 99.7475 44.8994 99.7475 45.0666H99.1233V44.8163C99.1233 44.5844 99.1539 44.3708 99.2152 44.1766C99.2764 43.9823 99.3663 43.8103 99.4848 43.6615C99.6033 43.5137 99.7584 43.3967 99.951 43.3136C100.143 43.2295 100.361 43.188 100.606 43.188C101.077 43.188 101.439 43.3271 101.687 43.6055C101.937 43.8838 102.062 44.2587 102.062 44.7313C102.062 44.9304 102.038 45.1159 101.989 45.2869C101.94 45.458 101.865 45.6174 101.764 45.7643C101.662 45.9112 101.557 46.0417 101.45 46.1557C101.344 46.2697 101.208 46.3973 101.045 46.5394C100.826 46.7317 100.667 46.8728 100.566 46.9626C100.466 47.0525 100.357 47.1549 100.24 47.269C100.124 47.384 100.045 47.4671 100.006 47.5183C99.9668 47.5695 99.9243 47.6352 99.8779 47.7154C99.8315 47.7956 99.8019 47.8652 99.788 47.9251C99.7742 47.985 99.7604 48.0633 99.7485 48.1609H102.116V48.7108H99.0798V48.7118Z" fill="#3A3845"/>
<path d="M103.058 44.6868V44.1959C103.278 44.1959 103.458 44.1833 103.6 44.1582C103.742 44.1331 103.872 44.0857 103.992 44.0142C104.112 43.9437 104.204 43.8403 104.269 43.705C104.334 43.5707 104.378 43.3977 104.401 43.188H104.887V48.7108H104.262V44.6859L103.058 44.6868Z" fill="#3A3845"/>
<path d="M108.739 48.7118V43.189H111.387V43.7437H109.362V48.7127L108.739 48.7118Z" fill="#3A3845"/>
<path d="M111.931 45.9452C111.931 45.7422 111.936 45.5557 111.947 45.3847C111.957 45.2136 111.979 45.0281 112.012 44.8271C112.045 44.6261 112.089 44.4454 112.145 44.2859C112.199 44.1265 112.274 43.9689 112.368 43.8143C112.462 43.6597 112.573 43.5302 112.699 43.4268C112.825 43.3234 112.981 43.2403 113.168 43.1775C113.354 43.1156 113.561 43.0837 113.788 43.0837C113.966 43.0837 114.132 43.1031 114.285 43.1417C114.438 43.1804 114.573 43.2326 114.689 43.2992C114.806 43.365 114.91 43.4481 115.005 43.5466C115.1 43.6452 115.18 43.7496 115.246 43.8588C115.312 43.9689 115.37 44.0926 115.418 44.2308C115.466 44.37 115.506 44.5053 115.535 44.6396C115.564 44.773 115.588 44.9179 115.606 45.0735C115.623 45.23 115.635 45.375 115.642 45.5113C115.649 45.6475 115.652 45.7915 115.652 45.9442C115.652 46.1839 115.646 46.3984 115.635 46.5878C115.623 46.7772 115.602 46.9753 115.57 47.1831C115.538 47.3909 115.494 47.5725 115.438 47.7281C115.381 47.8847 115.306 48.0345 115.213 48.1794C115.118 48.3244 115.006 48.4432 114.878 48.537C114.748 48.6307 114.592 48.7051 114.409 48.7602C114.225 48.8153 114.018 48.8423 113.789 48.8423C113.56 48.8423 113.353 48.8153 113.169 48.7602C112.985 48.7051 112.83 48.6307 112.703 48.537C112.574 48.4432 112.464 48.3244 112.37 48.1794C112.275 48.0345 112.201 47.8837 112.147 47.7281C112.091 47.5725 112.048 47.3909 112.014 47.1831C111.981 46.9753 111.959 46.7772 111.949 46.5878C111.936 46.3994 111.931 46.1848 111.931 45.9452ZM112.582 45.8437C112.582 46.1877 112.591 46.4796 112.609 46.7183C112.627 46.957 112.66 47.1812 112.711 47.3918C112.76 47.6035 112.829 47.7706 112.917 47.8934C113.005 48.0171 113.122 48.1137 113.265 48.1833C113.409 48.2538 113.583 48.2876 113.787 48.2876C113.958 48.2876 114.107 48.2654 114.235 48.221C114.362 48.1755 114.471 48.105 114.56 48.0074C114.65 47.9098 114.723 47.7977 114.78 47.6701C114.838 47.5426 114.883 47.3822 114.914 47.1889C114.946 46.9956 114.969 46.7956 114.981 46.5878C114.994 46.38 115 46.1346 115 45.8495C115 45.5876 114.99 45.3508 114.97 45.1411C114.949 44.9314 114.91 44.7304 114.855 44.5362C114.799 44.3429 114.726 44.1815 114.635 44.053C114.544 43.9245 114.426 43.822 114.28 43.7457C114.135 43.6694 113.965 43.6317 113.771 43.6317C113.582 43.6317 113.418 43.6703 113.278 43.7457C113.137 43.8211 113.023 43.9235 112.935 44.0511C112.847 44.1786 112.776 44.3391 112.723 44.5323C112.669 44.7256 112.633 44.9266 112.612 45.1353C112.592 45.346 112.582 45.5818 112.582 45.8437Z" fill="#3A3845"/>
<path d="M116.245 48.1619H116.62C116.867 47.7396 117.029 47.2699 117.104 46.752C117.18 46.234 117.218 45.5169 117.218 44.6008V43.189H120.207V48.1619H120.655V49.9999H120.058V48.7118H116.843V49.9999H116.247V48.1619H116.245ZM117.293 48.1619H119.582V43.7437H117.841V45.1778C117.841 46.435 117.658 47.4304 117.293 48.1619Z" fill="#3A3845"/>
<path d="M120.939 43.189H121.606L122.923 47.0235L124.128 43.189H124.779L123.23 47.7966C123.1 48.189 122.953 48.4624 122.789 48.6142C122.625 48.7669 122.424 48.8432 122.184 48.8432C121.977 48.8432 121.818 48.82 121.705 48.7727V48.2218C121.795 48.2663 121.934 48.2885 122.123 48.2885C122.237 48.2885 122.33 48.2527 122.402 48.1803C122.473 48.1078 122.54 47.9706 122.601 47.7686L120.939 43.189Z" fill="#3A3845"/>
<path d="M18.641 39.4385C18.2005 39.4385 17.757 39.4182 17.3085 39.3805C18.6686 38.2643 19.6524 37.1008 20.6046 35.9731C21.943 34.3873 23.3278 32.7493 25.7853 31.1876C29.6394 28.7369 33.856 27.9358 34.9643 27.7609C34.7223 28.877 33.4501 33.3001 27.9553 36.7549C26.6732 37.5618 23.1964 39.4385 18.641 39.4385Z" fill="#3A3845"/>
<path d="M22.791 32.2546C24.4829 29.2589 25.5013 26.2158 25.8253 23.1949C28.5583 20.3219 31.323 18.5408 34.9717 17.3909C34.6151 19.4396 33.8437 22.1551 33.1631 23.7225C32.7671 24.6415 32.1626 25.6398 31.5788 26.6091C31.2835 27.0981 30.9961 27.5725 30.7491 28.0142C28.2521 28.478 25.607 29.8909 22.791 32.2546Z" fill="#3A3845"/>
<path d="M16.2606 39.1101C13.6846 35.3016 12.4519 30.7519 11.8721 27.5803C11.1747 23.7796 11.4503 19.9827 12.7156 15.9722C13.895 12.2305 19.2179 3.54376 20.2639 1.85938C21.2259 3.50414 25.888 11.9715 25.2095 20.3538C24.5951 27.9717 21.1716 35.1325 16.2606 39.1101Z" fill="#3A3845"/>
<path d="M10.519 24.943C9.86117 18.2393 13.175 12.0381 13.8526 11.062C10.2375 5.31697 5.75912 1.03498 3.76982 0C3.67006 1.26498 2.98457 4.22594 2.37316 6.86799C2.12426 7.94163 1.8951 8.92636 1.73904 9.6608L1.32123 11.5771C0.39177 15.7915 -0.413233 19.4366 0.233733 24.0945C1.19875 31.0688 6.18187 36.292 14.2586 38.7998L15.0488 39.0211C12.7029 35.2629 11.0198 30.0483 10.519 24.943ZM12.6574 37.6962C2.67146 33.5514 0.476716 19.2781 2.67146 9.18052C2.7248 8.93989 -0.234453 31.8429 12.8273 37.5425C13.0279 37.6324 12.9488 37.8179 12.6574 37.6962Z" fill="#3A3845"/>
<path d="M25.4296 12.5859C25.4296 12.5859 26.1378 10.8484 28.5459 9.75062C30.3159 8.9437 31.109 8.97365 31.109 8.97365C31.1594 11.5693 31.2572 13.2353 30.7446 15.5372C30.2981 17.5347 29.3617 19.511 26.039 21.5432C26.039 21.5432 26.68 17.6285 25.4296 12.5859Z" fill="#3A3845"/>
</svg>
