<svg width="20" height="21" viewBox="0 0 20 21" fill="none" xmlns="http://www.w3.org/2000/svg">
<g opacity="0.5">
<path fill-rule="evenodd" clip-rule="evenodd" d="M15 10.9543H10.8333V15.1209C10.8333 15.5793 10.4583 15.9543 9.99999 15.9543C9.54166 15.9543 9.16666 15.5793 9.16666 15.1209V10.9543H4.99999C4.54166 10.9543 4.16666 10.5793 4.16666 10.1209C4.16666 9.6626 4.54166 9.2876 4.99999 9.2876H9.16666V5.12093C9.16666 4.6626 9.54166 4.2876 9.99999 4.2876C10.4583 4.2876 10.8333 4.6626 10.8333 5.12093V9.2876H15C15.4583 9.2876 15.8333 9.6626 15.8333 10.1209C15.8333 10.5793 15.4583 10.9543 15 10.9543Z" fill="#3A3845"/>
</g>
</svg>
