<svg width="20" height="20" viewBox="0 0 20 20" fill="none" xmlns="http://www.w3.org/2000/svg">
<g clip-path="url(#clip0_587_861)">
<path d="M2.32836 19H11.56C12.2608 19 12.8122 18.4187 12.6726 17.732C12.2871 15.836 11.028 12.4828 6.94421 12.4828C2.86046 12.4828 1.60137 15.836 1.21585 17.732C1.07621 18.4187 1.6276 19 2.32836 19Z" stroke="#595667" stroke-width="1.5" stroke-linecap="round" stroke-linejoin="round"/>
<path d="M14.7029 12.4828C17.2835 12.4828 18.3404 15.1491 18.767 17.0709C18.9974 18.1087 18.158 19 17.0949 19H15.9443" stroke="#595667" stroke-width="1.5" stroke-linecap="round" stroke-linejoin="round"/>
<path d="M6.94431 7.82759C8.8297 7.82759 10.3581 6.29918 10.3581 4.41379C10.3581 2.52841 8.8297 1 6.94431 1C5.05892 1 3.53052 2.52841 3.53052 4.41379C3.53052 6.29918 5.05892 7.82759 6.94431 7.82759Z" stroke="#595667" stroke-width="1.5" stroke-linecap="round" stroke-linejoin="round"/>
<path d="M13.4617 7.82759C15.3471 7.82759 16.5651 6.29917 16.5651 4.41379C16.5651 2.52841 15.3471 1 13.4617 1" stroke="#595667" stroke-width="1.5" stroke-linecap="round" stroke-linejoin="round"/>
</g>
<defs>
<clipPath id="clip0_587_861">
<rect width="20" height="20" fill="white"/>
</clipPath>
</defs>
</svg>
