<svg width="20" height="20" viewBox="0 0 20 20" fill="none" xmlns="http://www.w3.org/2000/svg">
<g clip-path="url(#clip0_1043_10008)">
<path d="M2.32836 18.9999H11.56C12.2608 18.9999 12.8122 18.4186 12.6726 17.7318C12.2871 15.8359 11.028 12.4827 6.94421 12.4827C2.86046 12.4827 1.60137 15.8359 1.21585 17.7318C1.07621 18.4186 1.6276 18.9999 2.32836 18.9999Z" stroke="#FFFEFE" stroke-width="1.5" stroke-linecap="round" stroke-linejoin="round"/>
<path d="M14.7029 12.4827C17.2835 12.4827 18.3404 15.149 18.767 17.0708C18.9974 18.1086 18.158 18.9999 17.0949 18.9999H15.9443" stroke="#FFFEFE" stroke-width="1.5" stroke-linecap="round" stroke-linejoin="round"/>
<path d="M6.94431 7.82759C8.8297 7.82759 10.3581 6.29918 10.3581 4.41379C10.3581 2.52841 8.8297 1 6.94431 1C5.05892 1 3.53052 2.52841 3.53052 4.41379C3.53052 6.29918 5.05892 7.82759 6.94431 7.82759Z" stroke="#FFFEFE" stroke-width="1.5" stroke-linecap="round" stroke-linejoin="round"/>
<path d="M13.4617 7.82759C15.3471 7.82759 16.5651 6.29917 16.5651 4.41379C16.5651 2.52841 15.3471 1 13.4617 1" stroke="#FFFEFE" stroke-width="1.5" stroke-linecap="round" stroke-linejoin="round"/>
</g>
<defs>
<clipPath id="clip0_1043_10008">
<rect width="20" height="20" fill="white"/>
</clipPath>
</defs>
</svg>
