<svg width="36" height="38" viewBox="0 0 36 38" fill="none" xmlns="http://www.w3.org/2000/svg">
<path d="M18 1.09375C27.654 1.09375 35.499 9.10002 35.499 19C35.499 28.9 27.654 36.9062 18 36.9062C8.34601 36.9062 0.500977 28.9 0.500977 19C0.500977 9.10004 8.34601 1.09378 18 1.09375ZM25.3496 11.1738C24.9194 11.1817 24.421 11.305 23.4482 11.666C22.4663 12.0304 20.9465 12.6595 18.4492 13.7217C16.6957 14.4676 13.1979 16.0081 7.95996 18.3418C7.51577 18.5224 7.14535 18.7134 6.87207 18.9209C6.64316 19.0947 6.42094 19.3272 6.33887 19.6279L6.3125 19.7617C6.27641 20.0568 6.35823 20.3218 6.53027 20.5381C6.68727 20.7354 6.9026 20.8712 7.10742 20.9727C7.50407 21.1691 8.07246 21.3316 8.59668 21.5059C9.06312 21.6609 9.61381 21.8308 10.1328 21.9639C10.6399 22.0939 11.1577 22.1995 11.541 22.208C12.2711 22.2241 13.0245 21.9167 13.7871 21.3818L13.7881 21.3828C16.239 19.691 18.0961 18.4183 19.3594 17.5645C19.6356 17.3777 19.8847 17.2136 20.1035 17.0674C19.7138 17.459 19.2561 17.9102 18.791 18.3594C18.2031 18.9271 17.5987 19.5027 17.123 19.9551L16.2285 20.8135C16.1089 20.9405 15.9859 21.0626 15.8613 21.1855C15.739 21.3063 15.6121 21.431 15.4951 21.5527C15.2682 21.7889 15.0282 22.0652 14.8936 22.3789C14.7449 22.7254 14.7282 23.1103 14.9287 23.5029C15.1117 23.8611 15.4548 24.1846 15.9258 24.502C16.691 25.0176 17.2959 25.4404 17.9102 25.8682C18.5244 26.2959 19.1476 26.7283 19.9434 27.2617C20.1863 27.4246 20.4158 27.5943 20.6543 27.7676C20.8877 27.9371 21.1298 28.1097 21.3779 28.2588C21.877 28.5586 22.4467 28.7928 23.1201 28.7295C23.9645 28.6501 24.5353 27.854 24.7949 26.4346C25.3539 23.38 26.4228 16.9637 26.7793 13.7549L26.8408 13.1582L26.8418 13.1455C26.856 12.9366 26.8531 12.7267 26.833 12.5186L26.8066 12.3115C26.7679 12.0049 26.6207 11.7209 26.3887 11.5146L26.3818 11.5088L26.376 11.5029L26.2305 11.4004C26.0827 11.3109 25.9292 11.2587 25.8018 11.2275C25.6287 11.1852 25.465 11.1719 25.3506 11.1738H25.3496Z" stroke="#6CCC61"/>
</svg>
