<svg width="38" height="38" viewBox="0 0 38 38" fill="none" xmlns="http://www.w3.org/2000/svg">
<path d="M19.0002 1.25977C28.7978 1.25989 36.7405 9.20242 36.7405 19C36.7404 28.7975 28.7977 36.7401 19.0002 36.7402C9.20267 36.7402 1.26014 28.7975 1.26001 19C1.26001 9.20234 9.20259 1.25977 19.0002 1.25977ZM17.4026 12.8496C17.0046 12.8496 16.5874 12.8573 16.2092 12.8955C15.8416 12.9327 15.4584 13.0024 15.1545 13.1543V13.1553C14.9329 13.2664 14.7414 13.4291 14.5959 13.6299L14.1321 14.2686L14.9084 14.4141C15.1186 14.4535 15.3567 14.5466 15.4758 14.7109L15.4768 14.7129C15.5623 14.8297 15.6331 15.0668 15.6731 15.3564C15.71 15.6238 15.7112 15.8534 15.7112 15.8896V15.9043L15.7122 15.9189C15.7262 16.1527 15.7605 16.8175 15.7161 17.46C15.6937 17.7833 15.6526 18.0777 15.5881 18.3008C15.5147 18.5551 15.4479 18.5867 15.4739 18.5723C15.4663 18.5756 15.4587 18.5776 15.4504 18.5781C15.4295 18.5754 15.2813 18.5425 14.97 18.1777C14.6619 17.8167 14.2777 17.232 13.7805 16.3584L13.7795 16.3574C13.1799 15.3093 12.8157 14.3803 12.7092 14.1299C12.6622 14.0186 12.5759 13.8231 12.4036 13.6621C12.2119 13.4831 11.9586 13.3848 11.6526 13.3848H8.77466C8.53701 13.3848 8.24265 13.4502 8.02368 13.6533C7.90717 13.7615 7.81349 13.9097 7.77856 14.0918C7.7451 14.2668 7.77272 14.4379 7.83423 14.5918V14.5928C7.8529 14.6413 8.43248 16.0009 9.32056 17.6797C10.206 19.3534 11.4246 21.3962 12.7297 22.7734C14.9088 25.0716 17.3799 25.249 17.9055 25.249H19.2112C19.7314 25.2489 20.294 24.7735 20.2942 24.0674C20.2942 22.9186 20.629 22.606 20.7454 22.5352L20.7825 22.5166C20.7896 22.5143 20.7974 22.5127 20.8049 22.5127H20.8069C20.8589 22.5127 20.9809 22.5472 21.2073 22.7461C21.4246 22.9371 21.6587 23.2065 21.9417 23.5352V23.5361C22.2987 23.9518 22.7228 24.4501 23.1711 24.7637L23.1741 24.7656C23.7679 25.1749 24.2832 25.2509 24.5706 25.251H27.4387L27.4573 25.25C27.6027 25.2394 27.8117 25.1858 28.0042 25.1006C28.1831 25.0213 28.4647 24.8637 28.6116 24.5742L28.6106 24.5732C28.8121 24.1784 28.6587 23.7638 28.4807 23.4619C28.4708 23.4431 28.4615 23.4269 28.4534 23.4141C28.2135 22.9793 27.6753 22.3607 27.2385 21.8877C27.0079 21.6379 26.7899 21.4122 26.6301 21.249C26.5503 21.1675 26.4845 21.1016 26.4387 21.0557C26.4159 21.0328 26.3983 21.0142 26.386 21.002C26.3799 20.9959 26.3746 20.9915 26.3713 20.9883L26.3665 20.9834V20.9824L26.3567 20.9736L25.8801 20.5176C25.7499 20.3877 25.6471 20.2769 25.5667 20.1768C25.4112 19.9831 25.3894 19.888 25.3879 19.8311C25.3862 19.7614 25.4121 19.6348 25.5696 19.373C25.7262 19.1127 25.9698 18.7851 26.3245 18.3203L26.3254 18.3193L27.0159 17.4092L27.0198 17.4043C27.8011 16.3462 28.2356 15.6177 28.4641 15.1084C28.6764 14.635 28.7567 14.2495 28.6497 13.9414H28.6516C28.6505 13.938 28.6479 13.935 28.6467 13.9316C28.6461 13.93 28.6464 13.9274 28.6458 13.9258H28.6448C28.5333 13.6168 28.245 13.506 28.095 13.4648C27.916 13.4158 27.7084 13.4023 27.5081 13.4023H24.1165C23.9633 13.4048 23.8124 13.4401 23.6741 13.5059L23.6526 13.5156L23.6331 13.5273C23.4919 13.6115 23.3966 13.7344 23.3499 13.7998C23.296 13.8752 23.255 13.9494 23.2444 13.9678L23.2249 14.002L23.2112 14.0381C22.9012 14.8455 22.5352 15.6306 22.1155 16.3867C21.4188 17.5819 20.9655 18.1352 20.6926 18.3867C20.5746 18.4955 20.5024 18.5348 20.4719 18.5488C20.4051 18.4879 20.3378 18.3726 20.2991 18.1377C20.2541 17.8646 20.2609 17.5384 20.2708 17.1738H20.2717V17.168L20.2766 16.8037H20.2776V16.7959C20.2776 16.2825 20.2938 15.8463 20.3108 15.4551V15.4531C20.3245 15.1087 20.3348 14.8109 20.3313 14.5605C20.3278 14.3135 20.3111 14.0811 20.259 13.877C20.2046 13.6636 20.1061 13.4592 19.927 13.2959C19.753 13.1374 19.5441 13.0552 19.342 13.0068H19.3411C18.9933 12.9194 18.7314 12.8614 17.8479 12.8496H17.4026Z" stroke="#6CCC61"/>
</svg>
